<svg viewBox="0 0 18 18" xmlns="http://www.w3.org/2000/svg"><rect opacity="0.01" width="100%" height="100%" fill="white"></rect><path d="M12.1146 9.48983C13.2763 8.63331 14.0299 7.2548 14.0299 5.7035C14.0299 3.11005 11.9198 1 9.32636 1C6.73291 1 4.62286 3.11005 4.62286 5.7035C4.62286 7.2548 5.37829 8.63331 6.53808 9.48983C3.87662 10.589 2 13.2118 2 16.2648C2 16.671 2.32901 17 2.73521 17C3.14141 17 3.47042 16.671 3.47042 16.2648C3.47042 13.0335 6.09879 10.407 9.3282 10.407C12.5576 10.407 15.186 13.0354 15.186 16.2648C15.186 16.671 15.515 17 15.9212 17C16.3274 17 16.6564 16.671 16.6564 16.2648C16.6546 13.2118 14.7761 10.589 12.1146 9.48983ZM6.09144 5.7035C6.09144 3.91878 7.54348 2.46858 9.32636 2.46858C11.1092 2.46858 12.5613 3.92062 12.5613 5.7035C12.5613 7.48639 11.1092 8.93843 9.32636 8.93843C7.54348 8.93843 6.09144 7.48639 6.09144 5.7035Z"></path></svg>