<svg xmlns="http://www.w3.org/2000/svg" viewBox="110.9169921875 -24.30769230769231 801.8493629526869 778.0310965630114"><path d="M577-12.58Q604-36.58 666.50-7.08Q729 22.42 798 91.42Q867 160.42 896.50 222.92Q926 285.42 902 312.42Q900 315.42 896 317.42L256 694.42Q228 685.42 208 663.42Q185 643.42 173 614.42L366 316.42Q536 53.42 573-5.58Q574-9.58 577-12.58ZM172 613.42Q167 616.42 151 625.42L121 642.42Q110 649.42 111 661.42Q118 696.42 143 720.92Q168 745.42 202 753.42Q215 755.42 222 744.42L242 712.42Q254 695.42 255 693.42Q227 684.42 207 662.42Q184 641.42 172 613.42ZM577-12.58Q604-36.58 666.50-7.08Q729 22.42 798 91.42Q867 160.42 896.50 222.92Q926 285.42 902 312.42Q900 315.42 896 317.42L794 377.42Q793 380.42 748 361.42Q703 342.42 621 263.42Q546 185.42 526 139.42Q506 93.42 508 92.42L531 57.42Q552 24.42 571-5.58Q573-9.58 577-12.58ZM680 207.42Q725 252.42 770 281.42Q815 310.42 851 318.92Q887 327.42 902.50 311.42Q918 295.42 910 259.42Q902 223.42 872.50 178.42Q843 133.42 798.50 89.42Q754 45.42 709.50 15.92Q665-13.58 628.50-21.58Q592-29.58 576.50-14.08Q561 1.42 569.50 37.42Q578 73.42 607 118.42Q636 163.42 680 207.42Z"/></svg>