<svg xmlns="http://www.w3.org/2000/svg" viewBox="141 -8 742 808.0952377319336"><path d="M589 256.10L577 248.10L727 42.10Q734 31.10 732 18.60Q730 6.10 719.50-1.90Q709-9.90 696.50-7.40Q684-4.90 676 5.10L522 215.10L282 66.10Q270 60.10 258 62.60Q246 65.10 239 76.10Q232 87.10 235 99.60Q238 112.10 249 119.10L486 266.10L464 297.10Q454 312.10 461.50 328.60Q469 345.10 486.50 346.60Q504 348.10 515 334.10L540 299.10L557 308.10Q572 318.10 588.50 310.10Q605 302.10 605 283.60Q605 265.10 589 256.10ZM764 747.10ZM710 747.10Q711 761.10 718 773.10Q725 785.10 737.50 792.60Q750 800.10 764 800.10Q778 800.10 790.50 792.60Q803 785.10 810 773.10Q817 761.10 817 746.60Q817 732.10 810 720.10Q803 708.10 790.50 700.60Q778 693.10 764 693.10Q750 693.10 737.50 700.60Q725 708.10 718 720.10Q711 732.10 710 747.10ZM261 693.10Q239 694.10 224 709.10Q209 724.10 209 746.60Q209 769.10 224 784.10Q239 799.10 261.50 799.10Q284 799.10 299 784.10Q314 769.10 314 747.10Q314 725.10 298.50 709.60Q283 694.10 261 693.10ZM141 210.10ZM234 210.10L791 210.10Q883 210.10 883 303.10L883 664.10Q883 757.10 791 757.10L234 757.10Q141 757.10 141 664.10L141 303.10Q141 210.10 234 210.10ZM520 471.10ZM392 471.10Q392 506.10 409 535.60Q426 565.10 456.50 582.10Q487 599.10 520.50 599.10Q554 599.10 584.50 582.10Q615 565.10 631.50 535.60Q648 506.10 649 471.10Q647 417.10 611 380.60Q575 344.10 520 343.10Q466 344.10 430 380.60Q394 417.10 392 471.10ZM477 499.10L477 443.10Q477 422.10 489 415.10Q501 408.10 519 417.10L569 446.10Q577 448.10 581.50 454.60Q586 461.10 586 469.60Q586 478.10 581.50 485.10Q577 492.10 569 494.10L519 523.10Q501 533.10 489 526.10Q477 519.10 477 499.10Z"/></svg>