<svg xmlns="http://www.w3.org/2000/svg" viewBox="0.5555555555555556 -127.25 2239.4444444444443 1023.6136363636363"><path d="M2080 787.11Q2065 787.11 2053 786.11Q2027 784.11 2002 784.11Q1994 784.11 1992.50 782.61Q1991 781.11 1990 773.11L1974 591.11L1958 440.11L1947 347.11L1937 266.11L1919 140.11Q1910 73.11 1897 6.11Q1896 1.11 1897-0.39Q1898-1.89 1904-2.89Q1951-11.89 1999-11.89L2010-11.89Q2018-10.89 2019-1.89Q2021 33.11 2023 67.11L2051 440.11L2065 611.11L2074 709.11ZM854-11.89Q861-11.89 872-11.89Q879-11.89 881-9.39Q883-6.89 883 0.11L891 121.11L909 372.11L920 503.11L928 604.11L944 778.11Q944 784.11 942.50 785.61Q941 787.11 935 787.11Q899 785.11 863 784.11Q855 785.11 855 777.11Q853 760.11 852 742.11Q847 697.11 844 651.11L828 493.11L811 350.11L799 249.11L786 157.11Q777 95.11 766 33.11L761 5.11Q759-1.89 766-2.89Q787-6.89 808-9.89Q829-12.89 854-11.89ZM1860 391.11Q1879 391.11 1884 394.61Q1889 398.11 1892 416.11Q1899 461.11 1904 506.11L1915 603.11L1936 809.11Q1938 816.11 1931 816.11L1853 825.11Q1847 826.11 1845 824.61Q1843 823.11 1842 817.11L1797 587.11L1769 434.11L1765 413.11Q1764 407.11 1770 405.11Q1816 394.11 1860 391.11ZM723 391.11Q743 390.11 748.50 394.61Q754 399.11 756 418.11Q766 479.11 772 540.11L785 660.11L793 741.11L800 806.11Q800 813.11 798.50 815.11Q797 817.11 791 818.11L717 825.11Q711 826.11 709 824.61Q707 823.11 706 817.11L645 503.11L629 414.11Q627 407.11 635 405.11Q681 394.11 723 391.11ZM1105 701.11L1105 825.11L1105 829.11Q1106 838.11 1097 837.11Q1085 837.11 1073 837.11Q1047 837.11 1022 839.11Q1015 840.11 1013.50 838.61Q1012 837.11 1011 829.11L995 649.11L987 560.11L975 424.11Q974 416.11 976 413.61Q978 411.11 985 410.11Q1027 406.11 1069 408.11Q1079 409.11 1090 411.11Q1096 413.11 1097.50 415.11Q1099 417.11 1099 423.11Q1101 450.11 1102 477.11L1103 537.11Q1105 619.11 1105 701.11ZM2240 707.11L2240 824.11L2240 830.11Q2240 838.11 2233 837.11L2197 837.11Q2176 837.11 2156 839.11Q2150 840.11 2148.50 838.61Q2147 837.11 2146 830.11L2125 596.11L2114 480.11L2110 421.11Q2109 415.11 2111 413.11Q2113 411.11 2119 411.11Q2144 408.11 2169 407.61Q2194 407.11 2219 410.11Q2229 411.11 2231.50 414.61Q2234 418.11 2235 428.11Q2237 495.11 2238 561.11Q2239 596.11 2239 632.11Q2239 668.11 2240 707.11ZM1812 179.11L1831 178.11Q1846 178.11 1857 180.11Q1864 181.11 1865 188.11L1878 327.11Q1880 336.11 1878 338.61Q1876 341.11 1867 341.11L1833 343.11Q1828 344.11 1825.50 343.11Q1823 342.11 1823 334.11Q1816 278.11 1809 221.11L1805 189.11Q1803 180.11 1812 179.11ZM698 178.11Q710 178.11 721 180.11Q727 181.11 728 188.11L732 223.11L742 332.11Q743 338.11 742 339.61Q741 341.11 735 341.11Q716 342.11 696 343.11Q690 344.11 688.50 342.61Q687 341.11 686 335.11L677 255.11Q673 221.11 669 188.11Q667 180.11 675 180.11Q686 178.11 698 178.11ZM1097 208.11L1097 278.11Q1097 313.11 1097 347.11Q1098 355.11 1096 356.61Q1094 358.11 1087 358.11Q1068 358.11 1050 356.11Q1044 355.11 1042.50 354.11Q1041 353.11 1042 347.11L1039 262.11Q1039 234.11 1038 205.11Q1037 198.11 1038.50 196.61Q1040 195.11 1047 195.11Q1068 195.11 1089 198.11Q1095 198.11 1096 200.11Q1097 202.11 1097 208.11ZM2233 212.11L2233 279.11Q2233 313.11 2233 348.11Q2233 355.11 2231.50 356.61Q2230 358.11 2223 358.11Q2204 357.11 2185 356.11Q2176 355.11 2177 347.11L2174 204.11Q2174 198.11 2175.50 196.61Q2177 195.11 2183 195.11Q2202 195.11 2220 197.11Q2231 198.11 2232 201.11Q2233 204.11 2233 212.11ZM667 333.11Q668 342.11 666 344.61Q664 347.11 655 348.11L631 354.11Q625 356.11 623.50 354.61Q622 353.11 621 348.11L596 207.11Q594 200.11 595.50 198.11Q597 196.11 604 195.11L639 189.11Q645 188.11 647 189.11Q649 190.11 649 196.11Q654 222.11 657 247.11L667 327.11ZM1731 196.11Q1754 192.11 1778 189.11Q1785 188.11 1786 196.11Q1790 224.11 1794 251.11Q1800 291.11 1802 332.11L1802 340.11Q1803 346.11 1797 348.11L1765 355.11Q1758 356.11 1757 349.11L1731 200.11ZM1018 206.11L1021 304.11Q1021 328.11 1019 349.11Q1019 356.11 1012 357.11L981 360.11Q974 361.11 974 353.11Q971 331.11 970 309.11Q967 268.11 965 226.11L963 206.11Q962 200.11 968 200.11Q988 198.11 1009 197.11Q1014 197.11 1016 198.61Q1018 200.11 1018 206.11ZM2155 288.11Q2156 317.11 2155 346.11Q2156 353.11 2154 355.11Q2152 357.11 2145 357.11L2117 360.11Q2109 361.11 2109 353.11Q2107 315.11 2104 277.11L2100 207.11Q2099 200.11 2105 200.11Q2125 198.11 2145 197.11Q2150 197.11 2151.50 198.61Q2153 200.11 2153 206.11Q2156 247.11 2155 288.11ZM628 629.11Q640 643.11 642.50 659.11Q645 675.11 640 692.11Q631 725.11 607 749.11Q568 790.11 518 815.11Q433 860.11 339 877.11Q272 891.11 204 895.11Q183 896.11 162 896.11L132 896.11Q126 896.11 124 894.11Q122 892.11 121 886.11L114 789.11L95 598.11L74 416.11L62 319.11L49 226.11Q38 149.11 24 73.11Q14 11.11 1-49.89Q-1-57.89 6-59.89L145-117.89Q158-123.89 171-126.89Q180-128.89 179-119.89Q179-95.89 178-70.89L177-57.89Q175 29.11 177 117.11Q179 194.11 184 271.11Q188 331.11 193.50 391.11Q199 451.11 205 510.11Q205 516.11 206.50 517.11Q208 518.11 215 517.11Q240 513.11 265 513.11Q345 513.11 422 532.11Q489 548.11 553 577.11Q584 592.11 611 613.11Q621 620.11 628 629.11ZM1755 620.11Q1786 646.11 1777 687.11Q1769 720.11 1747 745.11Q1711 785.11 1664 810.11Q1574 860.11 1472 878.11Q1417 889.11 1361 894.11Q1329 897.11 1294 896.11L1267 896.11Q1258 897.11 1258 888.11Q1255 846.11 1251 804.11L1235 633.11L1218 484.11L1197 316.11Q1192 272.11 1185 228.11L1167 116.11Q1155 36.11 1138-42.89L1137-49.89Q1134-57.89 1142-59.89Q1179-74.89 1215-90.89Q1251-106.89 1288-120.89Q1298-124.89 1307.50-126.89Q1317-128.89 1316-119.89Q1313-91.89 1313-64.39Q1313-36.89 1312-9.89Q1310 35.11 1313 79.11Q1313 91.11 1313 102.11Q1313 156.11 1317 209.11Q1320 280.11 1326 351.11Q1330 402.11 1335 452.11Q1337 480.11 1341 508.11Q1341 516.11 1343 517.11Q1345 518.11 1352 517.11Q1379 513.11 1406 513.11Q1500 515.11 1590 541.11Q1651 557.11 1708 587.11Q1733 601.11 1755 620.11ZM285 619.11L309 796.11Q332 783.11 386 740.61Q440 698.11 453 683.11Q372 647.11 285 619.11ZM1586 688.11Q1590 684.11 1585 681.11L1561 671.11Q1498 644.11 1434 623.11L1428 621.11Q1425 620.11 1421 622.11L1445 795.11Q1449 795.11 1451 793.11Q1510 751.11 1568 705.11Q1577 697.11 1586 688.11Z"/></svg>