<svg xmlns="http://www.w3.org/2000/svg" viewBox="110 18 801.7894736842106 737"><path d="M139 406Q132 407 125 403Q115 396 111.50 385Q108 374 113 363L244 127Q250 117 261 114Q272 111 282.50 117.50Q293 124 296 135Q299 146 293 156L163 392Q155 406 139 406ZM380 406Q364 405 355 392L223 156Q219 146 222 135.50Q225 125 235 118.50Q245 112 256.50 115.50Q268 119 273 130L404 365Q410 376 406.50 387.50Q403 399 392 403Q390 404 386.50 405Q383 406 380 406ZM642 406Q634 407 627 403Q618 397 614.50 386.50Q611 376 616 365L746 130Q753 120 763.50 117Q774 114 784 119.50Q794 125 797.50 135.50Q801 146 796 156L666 392Q658 406 642 406ZM884 406Q868 405 858 392L728 156Q722 146 725.50 135Q729 124 739 118Q749 112 760.50 115.50Q772 119 777 130L908 366Q914 376 910.50 387.50Q907 399 896 403Q894 404 890.50 405Q887 406 884 406ZM802 118L802 119L671 67Q656 62 640 61L380 61Q364 62 348 66L218 119Q204 127 207.50 142Q211 157 226 159L796 159Q803 158 808 153Q813 148 814 140.50Q815 133 811.50 127Q808 121 802 118ZM459 159L459 679Q459 702 474 716.50Q489 731 511 731Q533 731 548 716.50Q563 702 563 679L563 159ZM561 60Q558 42 544.50 30Q531 18 511.50 18Q492 18 478 30.50Q464 43 461 63L563 63ZM755 754L755 755L267 755Q244 754 232 734.50Q220 715 230 694L285 572Q291 561 301 554Q311 547 323 546L697 546Q710 546 720.50 553Q731 560 735 572L790 696Q796 705 796 716Q796 727 790.50 736Q785 745 775.50 750Q766 755 755 754ZM622 371L900 371Q908 372 909 380Q903 440 862 478.50Q821 517 761 518Q701 517 659.50 478.50Q618 440 613 380Q612 376 615 373.50Q618 371 622 371ZM119 371L398 371Q406 372 407 380Q401 440 360 480Q319 520 258 522Q197 520 156 480.50Q115 441 110 380Q110 376 112.50 373.50Q115 371 119 371Z"/></svg>