<svg xmlns="http://www.w3.org/2000/svg" viewBox="321 -128 381.5 1024"><path d="M365 413ZM321 413Q322 395 334.50 382.50Q347 370 365.50 370Q384 370 396.50 382.50Q409 395 409 413.50Q409 432 396.50 444.50Q384 457 365.50 457Q347 457 334.50 444.50Q322 432 321 413ZM585 867ZM556 867Q556 854 564 846Q572 838 584.50 838Q597 838 605.50 846Q614 854 614 866.50Q614 879 605.50 887.50Q597 896 584.50 896Q572 896 564 887.50Q556 879 556 867ZM678-2Q652-16 635.50-40Q619-64 614-93Q599-163 585-93Q580-64 563.50-40Q547-16 520-2Q472 20 520 42Q547 53 563.50 76.50Q580 100 585 129Q599 200 614 129Q619 100 635.50 76Q652 52 678 39Q727 18 678-2Z"/></svg>