<svg xmlns="http://www.w3.org/2000/svg" viewBox="85 -128 939 1024"><path d="M171 811L171-43L597-43L597 128L768 128L768 213L853 213L853 43L683-128L85-128L85 896L512 896L427 811ZM725 299Q600 302 515 387Q430 472 427 597Q430 722 515 807.50Q600 893 725 896Q850 893 935.50 807.50Q1021 722 1024 597Q1021 472 935.50 387Q850 302 725 299ZM512 597Q514 506 574 446Q634 386 725 384Q758 385 788.50 395Q819 405 845 418L546 717Q533 691 523 660.50Q513 630 512 597ZM725 811Q693 810 662.50 800Q632 790 606 777L905 478Q918 504 928 534.50Q938 565 939 597Q937 689 877 749Q817 809 725 811Z"/></svg>