<svg viewBox="0 0 18 18" xmlns="http://www.w3.org/2000/svg"><rect opacity="0.01" width="100%" height="100%"></rect><path fill-rule="evenodd" clip-rule="evenodd" d="M6.3751 3H11.6251C11.8322 3 12.0001 3.16789 12.0001 3.375V4.875C12.0001 5.08211 11.8322 5.25 11.6251 5.25H6.3751C6.168 5.25 6.0001 5.08211 6.0001 4.875V3.375C6.0001 3.16789 6.168 3 6.3751 3ZM4.88542 2.23621C5.22808 1.78865 5.76788 1.5 6.3751 1.5H11.6251C12.2323 1.5 12.7721 1.78865 13.1148 2.23621H14.6251C15.6606 2.23621 16.5001 3.03371 16.5001 4.01746V14.705C16.5001 15.6887 15.6606 16.4862 14.6251 16.4862H3.37509C2.33956 16.4862 1.50009 15.6887 1.50009 14.705V4.01746C1.50009 3.03371 2.33956 2.23621 3.37509 2.23621H4.88542ZM4.5001 3.66121H3.37509C3.16798 3.66121 3.00009 3.82071 3.00009 4.01746V14.705C3.00009 14.9017 3.16798 15.0612 3.37509 15.0612H14.6251C14.8322 15.0612 15.0001 14.9017 15.0001 14.705V4.01746C15.0001 3.82071 14.8322 3.66121 14.6251 3.66121H13.5001V4.875C13.5001 5.91054 12.6606 6.75 11.6251 6.75H6.3751C5.33957 6.75 4.5001 5.91054 4.5001 4.875V3.66121ZM4.5001 9.38879C4.5001 8.97457 4.83589 8.63879 5.2501 8.63879H10.5001C10.9143 8.63879 11.2501 8.97457 11.2501 9.38879C11.2501 9.803 10.9143 10.1388 10.5001 10.1388H5.2501C4.83589 10.1388 4.5001 9.803 4.5001 9.38879ZM5.2501 11.625C4.83589 11.625 4.5001 11.9608 4.5001 12.375C4.5001 12.7892 4.83589 13.125 5.2501 13.125H7.5001C7.91432 13.125 8.2501 12.7892 8.2501 12.375C8.2501 11.9608 7.91432 11.625 7.5001 11.625H5.2501Z"></path></svg>