<svg xmlns="http://www.w3.org/2000/svg" viewBox="73 0 878 862"><path d="M905 828L597 521ZM905 0Q898 0 887.50 1.50Q877 3 870 9L512 376L154 17Q147 11 136.50 5.50Q126 0 119.50 0Q113 0 102.50 1.50Q92 3 85 9Q73 22 73 38.50Q73 55 85 68L444 427L94 794Q81 807 81 823.50Q81 840 94 853Q100 860 107.50 861Q115 862 128 862Q141 862 148.50 861Q156 860 162 853L512 495L870 853Q877 860 884.50 861Q892 862 905 862Q911 862 921.50 861Q932 860 939 853Q951 840 951 823.50Q951 807 939 794L572 435L930 77Q943 64 943 47.50Q943 31 930 17Q929 11 920.50 5.50Q912 0 905 0Z"/></svg>