<svg viewBox="0 0 18 18" xmlns="http://www.w3.org/2000/svg"><rect opacity="0.01" width="100%" height="100%"></rect><path fill-rule="evenodd" clip-rule="evenodd" d="M12.3995 0.75H4.04147C2.91872 0.75 1.99997 1.6695 1.99997 2.79225V15.2078C1.99997 16.3305 2.91872 17.25 4.04147 17.25H12.5067C14.5655 17.25 16.25 15.5655 16.25 13.5068V4.6005C16.25 2.48325 14.5167 0.75 12.3995 0.75ZM12.3995 2.25469C13.6962 2.25469 14.75 3.30844 14.75 4.60519V13.5114C14.75 14.7482 13.7435 15.7547 12.5067 15.7547H4.04146C3.74821 15.7547 3.49996 15.5064 3.49996 15.2124V2.79694C3.49996 2.50294 3.74821 2.25469 4.04146 2.25469H12.3995Z"></path><path fill-rule="evenodd" clip-rule="evenodd" d="M9.02925 0.75H5.4705C5.21025 0.75 4.9995 0.98475 4.9995 1.27425V7.5435C4.9995 7.842 5.21925 8.0685 5.46975 8.0685C5.5185 8.0685 5.5695 8.0595 5.61975 8.04075L7.101 7.49025C7.149 7.47225 7.2 7.46325 7.2495 7.46325C7.29975 7.46325 7.35075 7.47225 7.39875 7.49025L8.88 8.04075C8.93025 8.0595 8.98125 8.0685 9.03 8.0685C9.27975 8.0685 9.4995 7.842 9.4995 7.5435V1.27425C9.4995 0.98475 9.2895 0.75 9.02925 0.75ZM7.99946 2.25469V6.11794L7.92071 6.08869C7.70471 6.00919 7.47971 5.96794 7.24946 5.96794C7.01996 5.96794 6.79496 6.00919 6.57896 6.08869L6.49946 6.11794V2.25469H7.99946Z"></path></svg>