<svg xmlns="http://www.w3.org/2000/svg" viewBox="213 128 598 555"><path d="M725 598L469 598L405 683L341 598L299 598Q263 597 238.50 572.50Q214 548 213 512L213 214Q214 178 238.50 153.50Q263 129 299 128L725 128Q744 128 758.50 134.50Q773 141 785.50 153.50Q798 166 804.50 180.50Q811 195 811 214L811 512Q810 548 785.50 572.50Q761 597 725 598ZM405 342L533 342Q543 342 549 336Q555 330 555 320.50Q555 311 549 305Q543 299 533 299L405 299Q396 299 390 305Q384 311 384 320.50Q384 330 390 336Q396 342 405 342ZM619 214L405 214Q396 214 390 219.50Q384 225 384 235Q384 245 390 250.50Q396 256 405 256L619 256Q628 256 634 250.50Q640 245 640 235Q640 225 634 219.50Q628 214 619 214ZM661 299L619 299Q609 299 603 305Q597 311 597 320.50Q597 330 603 336Q609 342 619 342L661 342Q671 342 677 336Q683 330 683 320.50Q683 311 677 305Q671 299 661 299Z"/></svg>