<svg xmlns="http://www.w3.org/2000/svg" viewBox="0 -128 1024 1024"><path d="M853-128L171-128Q98-126 50-78Q2-30 0 43L0 725Q2 798 50 846Q98 894 171 896L853 896Q926 894 974 846Q1022 798 1024 725L1024 43Q1022-30 974-78Q926-126 853-128ZM939 128L939 640Q938 679 915 702Q892 725 853 725L171 725Q132 725 109 702Q86 679 85 640L85 128Q86 89 109 66Q132 43 171 43L853 43Q892 43 915 66Q938 89 939 128ZM171 384L427 384L427 299L171 299ZM683 128L171 128L171 213L683 213ZM768 213L853 213L853 128L768 128ZM512 384L853 384L853 299L512 299Z"/></svg>