<svg xmlns="http://www.w3.org/2000/svg" viewBox="1 -126 1022 1022"><path d="M938-126L86-126Q50-125 26-101Q2-77 1-41L1 811Q2 847 26 871Q50 895 86 896L938 896Q974 895 998 871Q1022 847 1023 811L1023-41Q1022-77 998-101Q974-125 938-126ZM746 296L746 508Q746 526 734 538.50Q722 551 704 551L363 551Q345 551 333 538.50Q321 526 320 508L320 296Q321 277 333 265Q345 253 363 253L414 253L384 223Q375 213 375 200.50Q375 188 384.50 178.50Q394 169 406.50 169Q419 169 429 178L503 253L542 253L616 178Q626 169 638.50 169Q651 169 661 178.50Q671 188 671 200.50Q671 213 661 223L631 253L704 253Q722 253 734 265Q746 277 746 296Z"/></svg>