<svg xmlns="http://www.w3.org/2000/svg" viewBox="0 -128 1024 1024"><path d="M373 337Q360 337 351 346.50Q342 356 342 369Q342 382 351 391.50Q360 401 373.50 401Q387 401 396 391.50Q405 382 405 369Q405 356 396 346.50Q387 337 373 337ZM437 252Q424 252 415 261.50Q406 271 406 284Q406 297 415 306Q424 315 437.50 315Q451 315 460 306Q469 297 469 284Q469 271 460 261.50Q451 252 437 252ZM544 294Q557 294 566.50 285Q576 276 576 262.50Q576 249 566.50 240Q557 231 544 231Q531 231 521.50 240Q512 249 512 262.50Q512 276 521.50 285Q531 294 544 294ZM939-128L85-128Q49-127 25-103Q1-79 0-43L0 811Q1 847 25 871Q49 895 85 896L939 896Q975 895 999 871Q1023 847 1024 811L1024-43Q1023-79 999-103Q975-127 939-128ZM766 363Q753 447 687 508Q621 569 518 572Q478 572 441.50 558.50Q405 545 397 521Q392 499 383.50 480Q375 461 348 465Q310 473 284.50 461.50Q259 450 256 418Q256 306 331 242Q406 178 512 166Q616 157 695 208.50Q774 260 766 363ZM544 401Q521 402 506 416.50Q491 431 491 454Q491 477 506 492Q521 507 544 507Q567 507 582 492Q597 477 597 454Q597 431 582 416.50Q567 402 544 401ZM651 273Q637 273 628 282.50Q619 292 619 305Q619 318 628 327.50Q637 337 650.50 337Q664 337 673 327.50Q682 318 682 305Q682 292 673 282.50Q664 273 651 273Z"/></svg>