<svg xmlns="http://www.w3.org/2000/svg" viewBox="141.952392578125 92.95652173913044 740.0910856827446 591.0434782608695"><path d="M210 165.96L298 165.96L316 114.96Q321 104.96 329.50 98.96Q338 92.96 349 92.96L675 92.96Q686 92.96 695 98.46Q704 103.96 709 114.96L727 165.96L815 165.96Q844 167.96 863 187.96Q882 207.96 882 236.96L882 613.96Q881 642.96 862 662.96Q843 682.96 814 683.96L210 683.96Q181 682.96 161.50 662.46Q142 641.96 142 613.96L142 236.96Q141 207.96 161 187.46Q181 166.96 210 165.96ZM142 614.96L142 338.96L882 338.96L882 609.96Q883 640.96 861 662.96Q839 684.96 808 683.96L211 683.96Q182 683.96 162 663.46Q142 642.96 142 614.96ZM512 238.96Q596 241.96 651.50 297.46Q707 352.96 709 436.96Q707 520.96 651.50 576.46Q596 631.96 512 633.96Q428 631.96 372.50 576.46Q317 520.96 315 436.96Q317 352.96 372.50 297.46Q428 241.96 512 238.96ZM512 290.96Q558 290.96 594.50 315.46Q631 339.96 648.50 381.96Q666 423.96 657.50 467.46Q649 510.96 616.50 543.46Q584 575.96 541 584.46Q498 592.96 455.50 575.46Q413 557.96 388.50 520.96Q364 483.96 364 438.96Q366 375.96 407.50 333.96Q449 291.96 512 290.96ZM512 338.96Q543 338.96 567 355.46Q591 371.96 603 399.96Q615 427.96 609 456.96Q603 485.96 581.50 507.46Q560 528.96 531.50 534.46Q503 539.96 474.50 528.46Q446 516.96 430 492.46Q414 467.96 413 436.96Q414 396.96 442.50 367.96Q471 338.96 512 338.96ZM734 238.96L808 238.96Q818 239.96 825.50 246.96Q833 253.96 833 264.96Q833 275.96 825.50 282.96Q818 289.96 808 290.96L734 290.96Q723 289.96 715.50 282.96Q708 275.96 708 264.96Q708 253.96 715.50 246.96Q723 239.96 734 238.96Z"/></svg>