<svg xmlns="http://www.w3.org/2000/svg" viewBox="119.5 -1 780.8846153846155 776.7618865966797"><path d="M534 257.76ZM571 293.76L601 324.76Q637 360.76 601 396.76L241 757.76Q204 793.76 168 757.76L138 726.76Q101 690.76 138 654.76L498 293.76Q534 257.76 571 293.76ZM370 422.76L507 284.76Q519 273.76 534.50 273.76Q550 273.76 562 284.76L610 333.76Q621 344.76 621 360.76Q621 376.76 610 387.76L472 525.76ZM286 509.76ZM299 522.76L372 594.76Q384 607.76 372 620.76L370 622.76Q357 635.76 344 622.76L272 549.76Q259 536.76 272 524.76L273 522.76Q286 509.76 299 522.76ZM723 477.76L737 426.76Q745 403.76 761 387.76Q777 371.76 800 363.76L851 349.76Q860 349.76 866.50 344.26Q873 338.76 875 330.26Q877 321.76 874 313.76Q871 305.76 864 300.76L827 262.76Q811 244.76 805 222.26Q799 199.76 804 176.76L821 113.76Q826 92.76 815.50 82.76Q805 72.76 785 77.76L721 94.76Q698 98.76 675.50 92.76Q653 86.76 636 71.76L598 34.76Q593 27.76 585 24.76Q577 21.76 568.50 23.76Q560 25.76 555 32.26Q550 38.76 549 47.76L535 98.76Q528 121.76 511.50 138.26Q495 154.76 473 161.76L421 175.76Q413 176.76 406.50 182.26Q400 187.76 397.50 195.76Q395 203.76 398 211.76Q401 219.76 408 224.76L445 262.76Q461 280.76 467 302.76Q473 324.76 468 348.76L452 411.76Q446 432.76 456.50 442.76Q467 452.76 488 447.76L551 430.76Q574 425.76 596.50 431.76Q619 437.76 637 453.76L674 490.76Q679 498.76 687 501.76Q695 504.76 703.50 502.26Q712 499.76 717.50 493.26Q723 486.76 723 477.76ZM886 296.76L812 221.76L842 106.76Q846 95.76 843.50 84.76Q841 73.76 832.50 65.76Q824 57.76 813.50 55.76Q803 53.76 792 57.76L677 88.76L603 12.76Q586-4.24 563-0.24Q552 2.76 544.50 11.26Q537 19.76 535 30.76L507 132.76L404 160.76Q393 162.76 384.50 170.26Q376 177.76 373 188.76Q370 199.76 373.50 210.26Q377 220.76 386 228.76L461 303.76L430 418.76Q427 429.76 429 440.76Q431 451.76 439 459.76Q451 470.76 466 470.76Q474 470.76 481 468.76L595 437.76L670 512.76Q683 525.76 701 526.76Q705 527.76 710 526.76Q721 523.76 728.50 515.26Q736 506.76 738 495.76L766 393.76L868 365.76Q879 363.76 887.50 356.26Q896 348.76 899 337.26Q902 325.76 898.50 314.76Q895 303.76 886 296.76ZM802 92.76L807 92.76Q807 95.76 807 97.76L781 191.76L708 117.76ZM770 232.76L735 360.76L607 394.76L505 292.76L539 164.76L667 129.76ZM570 40.76Q571 36.76 572 35.76Q574 36.76 576 38.76L636 98.76L548 121.76ZM412 202.76L410 198.76Q412 196.76 414 196.76L496 174.76L472 262.76ZM471 432.76Q468 433.76 466 432.76Q465 430.76 466 427.76L491 333.76L563 407.76ZM701 483.76Q700 487.76 700 488.76Q697 487.76 695 485.76L636 426.76L723 402.76ZM858 328.76L857 327.76L776 349.76L799 262.76L859 321.76L862 325.76Q860 327.76 858 328.76Z"/></svg>