<svg xmlns="http://www.w3.org/2000/svg" viewBox="95.92857142857142 0 832.1428571428571 768"><path d="M512 768Q507 768 501 766Q495 764 490 762Q455 736 335 637Q215 538 163 474Q121 418 108 376.50Q95 335 96 282Q99 163 170 83Q241 3 349 0Q395 0 436.50 16.50Q478 33 512 64Q546 33 587.50 16.50Q629 0 675 0Q783 3 854 83Q925 163 928 282Q929 332 916 374Q903 416 861 474Q809 536 688 636Q567 736 534 762Q529 764 523 766Q517 768 512 768ZM358 64Q279 67 221 133.50Q163 200 160 294Q159 323 166.50 359Q174 395 208 445Q244 488 341 566L512 704L683 566Q780 488 816 445Q851 395 858.50 358Q866 321 864 294Q861 200 803 133.50Q745 67 666 64Q626 64 595 81.50Q564 99 531 128Q522 135 517 136.50Q512 138 512 138L508 137Q503 136 496 131Q461 102 429.50 83.50Q398 65 358 64Z"/></svg>