<svg xmlns="http://www.w3.org/2000/svg" viewBox="-0.11627906976744201 -128.23529411764707 1025.782944146977 1023.9019200942096"><path d="M757 895.43Q743 894.43 728.50 890.93Q714 887.43 699 882.43L552 805.43Q533 791.43 512 791.43Q491 791.43 476 805.43L329 882.43Q295 897.43 259.50 895.43Q224 893.43 194 869.43Q170 849.43 158.50 819.93Q147 790.43 156 760.43L188 575.43Q192 552.43 184.50 534.93Q177 517.43 162 498.43L35 364.43Q10 344.43 2.50 313.93Q-5 283.43 9 249.43Q19 220.43 44 199.43Q69 178.43 99 172.43L271 147.43Q291 146.43 308 134.43Q325 122.43 335 102.43L405-57.57Q420-91.57 450.50-111.57Q481-131.57 520-127.57Q555-127.57 580.50-106.57Q606-85.57 616-50.57L693 102.43Q703 121.43 720 134.93Q737 148.43 757 153.43L930 179.43Q959 184.43 982 202.43Q1005 220.43 1019 249.43Q1029 278.43 1024 309.43Q1019 340.43 1000 364.43L872 498.43Q857 513.43 849.50 532.43Q842 551.43 846 575.43L878 760.43Q883 795.43 869.50 825.93Q856 856.43 827 876.43Q813 885.43 794.50 890.43Q776 895.43 757 895.43Z"/></svg>