<svg xmlns="http://www.w3.org/2000/svg" viewBox="0 -128 1024 1024"><path d="M512 896Q408 896 313 856Q221 817 150 746Q79 675 40 583Q0 488 0 384Q0 280 40 185Q79 93 150 22Q221-49 313-88Q408-128 512-128Q616-128 711-88Q803-49 874 22Q945 93 984 185Q1024 280 1024 384Q1024 488 984 583Q945 675 874 746Q803 817 711 856Q616 896 512 896ZM440 459Q440 412 467 372.50Q494 333 540.50 309.50Q587 286 642 286L660 286Q651 243 618 206.50Q585 170 535 150Q484 128 425 128Q361 128 306 153.50Q251 179 218.50 222.50Q186 266 186 318Q186 365 211 403.50Q236 442 280 469L259 540L349 498Q388 508 429 508L450 508Q440 487 440 459ZM762 589Q798 565 818 532Q838 499 838 462Q838 419 812 382.50Q786 346 742 325Q698 304 646 304Q594 304 550 325Q506 346 480 382.50Q454 419 454 462.50Q454 506 480 542Q506 578 550 599.50Q594 621 646 621Q682 621 715 610L780 645ZM505 223Q518 223 527.50 232Q537 241 537 254.50Q537 268 527.50 277.50Q518 287 504.50 287Q491 287 481.50 277.50Q472 268 472 254.50Q472 241 481.50 232Q491 223 505 223ZM349 223Q363 223 372.50 232Q382 241 382 254.50Q382 268 372 277.50Q362 287 349 287Q336 287 326.50 277.50Q317 268 317 254.50Q317 241 326.50 232Q336 223 349 223ZM715 381Q726 381 733 388Q740 395 740 406Q740 417 733 424Q726 431 715 431Q704 431 696.50 424Q689 417 689 406Q689 395 696.50 388Q704 381 715 381ZM584 381Q595 381 602.50 388Q610 395 610 406Q610 417 602.50 424Q595 431 584.50 431Q574 431 566.50 424Q559 417 559 406Q559 395 566.50 388Q574 381 584 381Z"/></svg>