<svg xmlns="http://www.w3.org/2000/svg" viewBox="-0.11627906976744201 -128.23529411764707 1025.782944146977 1023.9019200942096"><path d="M757 895.43Q743 894.43 728.50 890.93Q714 887.43 699 882.43L552 805.43Q533 791.43 512 791.43Q491 791.43 476 805.43L329 882.43Q295 897.43 259.50 895.43Q224 893.43 194 869.43Q170 849.43 158.50 819.93Q147 790.43 156 760.43L188 575.43Q192 552.43 184.50 534.93Q177 517.43 162 498.43L35 364.43Q10 344.43 2.50 313.93Q-5 283.43 9 249.43Q19 220.43 44 199.43Q69 178.43 99 172.43L271 147.43Q291 146.43 308 134.43Q325 122.43 335 102.43L405-57.57Q420-91.57 450.50-111.57Q481-131.57 520-127.57Q555-127.57 580.50-106.57Q606-85.57 616-50.57L693 102.43Q703 121.43 720 134.93Q737 148.43 757 153.43L930 179.43Q959 184.43 982 202.43Q1005 220.43 1019 249.43Q1029 278.43 1024 309.43Q1019 340.43 1000 364.43L872 498.43Q857 513.43 849.50 532.43Q842 551.43 846 575.43L878 760.43Q883 795.43 869.50 825.93Q856 856.43 827 876.43Q813 885.43 794.50 890.43Q776 895.43 757 895.43ZM514 690.43Q538 690.43 561 696.43Q584 702.43 604 716.43L744 792.43Q754 797.43 759.50 795.43Q765 793.43 770 792.93Q775 792.43 778 787.93Q781 783.43 776 773.43L744 588.43Q739 540.43 750.50 500.93Q762 461.43 795 428.43L923 294.43Q927 289.43 925.50 284.43Q924 279.43 923.50 274.93Q923 270.43 919 269.43Q915 268.43 910 268.43L738 243.43Q694 237.43 658 210.93Q622 184.43 597 140.43L527-19.57Q527-28.57 523-30.57Q519-32.57 514-32.57Q509-32.57 504.50-30.57Q500-28.57 495-19.57L425 140.43Q400 184.43 363.50 210.93Q327 237.43 284 243.43L111 268.43Q106 268.43 102.50 272.43Q99 276.43 98.50 281.43Q98 286.43 99 290.43Q100 294.43 105 294.43L233 428.43Q266 462.43 277.50 500.43Q289 538.43 284 581.43L258 767.43Q258 772.43 259 776.93Q260 781.43 265 786.43Q270 791.43 278.50 791.43Q287 791.43 297 786.43L437 709.43Q448 704.43 468.50 697.93Q489 691.43 514 690.43Z"/></svg>