<svg xmlns="http://www.w3.org/2000/svg" viewBox="0 -128 1024 1024"><path d="M512-128Q408-128 313-88Q221-49 150 22Q79 93 40 185Q0 280 0 384Q0 488 40 583Q79 675 150 746Q221 817 313 856Q408 896 512 896Q616 896 711 856Q803 817 874 746Q945 675 984 583Q1024 488 1024 384Q1024 280 984 185Q945 93 874 22Q803-49 711-88Q616-128 512-128ZM326 335Q332 329 340 329L421 329L421 183Q421 175 426 170Q431 165 439 165L585 165Q593 165 598 170Q603 175 603 183L603 329L684 329Q690 329 694.50 332.50Q699 336 701.50 341Q704 346 702.50 351.50Q701 357 697 361L524 519Q519 524 512 524Q505 524 500 519L327 361Q322 356 321.50 348.50Q321 341 326 335ZM713 567L713 603Q713 611 707.50 616.50Q702 622 695 622L329 622Q322 622 316.50 616.50Q311 611 311 603L311 567Q311 559 316.50 554Q322 549 329 549L695 549Q702 549 707.50 554Q713 559 713 567Z"/></svg>