<svg xmlns="http://www.w3.org/2000/svg" viewBox="0 -128 1024 1024"><path d="M512 896Q408 896 313 856Q221 817 150 746Q79 675 40 583Q0 488 0 384Q0 280 40 185Q79 93 150 22Q221-49 313-88Q408-128 512-128Q616-128 711-88Q803-49 874 22Q945 93 984 185Q1024 280 1024 384Q1024 488 984 583Q945 675 874 746Q803 817 711 856Q616 896 512 896ZM707 300Q724 300 724 276L724 269Q724 234 699.50 209.50Q675 185 640 185Q632 185 626 191.50Q620 198 620 205.50Q620 213 626 219.50Q632 226 640 226L650 226Q669 231 679 246Q689 261 687 279Q687 287 693 293.50Q699 300 707 300ZM626 266Q586 247 539 266Q515 276 499 290Q503 275 505 258Q509 225 499 212Q485 197 463 193Q445 190 425 195Q408 199 398 206Q330 243 282 302Q234 358 217 419Q200 480 220 528Q240 573 291 602Q342 631 409 636Q479 642 549 619Q625 593 671 549Q712 510 720 466Q728 425 704 397Q679 372 643 367Q650 347 651 324Q654 279 626 266ZM811 300Q811 299 811.50 297.50Q812 296 815 296L815 283Q815 235 790.50 194Q766 153 725 129Q684 105 636 105L633 105Q623 105 614.50 113.50Q606 122 606 132Q606 142 614.50 150.50Q623 159 633 159L653 159Q686 163 712 183.50Q738 204 750 233.50Q762 263 757 296L757 300Q757 310 765.50 318.50Q774 327 784 326.50Q794 326 802.50 318Q811 310 811 300ZM435 357Q485 355 528.50 368Q572 381 598.50 406Q625 431 626.50 464Q628 497 604.50 526Q581 555 539.50 573.50Q498 592 448.50 595.50Q399 599 355.50 585.50Q312 572 285 546.50Q258 521 256.50 488Q255 455 278.50 426Q302 397 343.50 378.50Q385 360 435 357ZM448 568Q489 558 511 528.50Q533 499 526 464Q521 441 503 425.50Q485 410 460 405Q435 400 408 407Q367 417 345 446.50Q323 476 331 511Q336 534 353.50 549.50Q371 565 396.50 570Q422 575 448 568ZM452 464Q457 464 460.50 468.50Q464 473 462 478Q462 480 458 484Q454 488 451.50 488Q449 488 445.50 485Q442 482 442 477Q442 472 444.50 468Q447 464 452 464ZM395 474Q407 474 416 483Q425 492 425 504.50Q425 517 416 526Q407 535 394.50 535Q382 535 373 526Q364 517 364 504.50Q364 492 373 483Q382 474 395 474Z"/></svg>