<svg xmlns="http://www.w3.org/2000/svg" viewBox="106.81395348837214 20.298387096774192 812.1860465116279 730.7016129032259"><path d="M919 385.30Q918 336.30 895 294.30Q872 252.30 830 226.30Q832 215.30 832 204.30Q832 165.30 814 132.30Q796 99.30 763.50 77.80Q731 56.30 693.50 53.30Q656 50.30 621 65.30Q599 43.30 571 31.80Q543 20.30 512.50 20.30Q482 20.30 454 31.80Q426 43.30 404 65.30Q369 50.30 331.50 53.30Q294 56.30 261.50 77.80Q229 99.30 211.50 132.30Q194 165.30 194 204.30Q194 215.30 195 226.30Q155 251.30 132 290.80Q109 330.30 107 377.30Q105 424.30 124.50 465.80Q144 507.30 182 535.30L182 537.30Q182 597.30 212 646.80Q242 696.30 295 724.80Q348 753.30 406 750.80Q464 748.30 514 716.30Q565 748.30 623 750.80Q681 753.30 734 724.80Q787 696.30 816.50 646.80Q846 597.30 847 537.30L847 534.30Q882 507.30 900.50 468.30Q919 429.30 919 385.30ZM681 355.30Q650 355.30 622 343.80Q594 332.30 573 310.30Q544 323.30 513 323.30Q482 323.30 453 310.30Q431 332.30 403 344.30Q375 356.30 345 356.30L333 356.30L333 523.30Q335 594.30 382 640.80Q429 687.30 499 689.30L533 689.30Q603 687.30 650 640.80Q697 594.30 699 523.30L699 353.30Q690 355.30 681 355.30ZM510 526.30ZM477 526.30Q477 541.30 486.50 550.30Q496 559.30 510.50 559.30Q525 559.30 534.50 550.30Q544 541.30 544 526.80Q544 512.30 534.50 502.80Q525 493.30 510.50 493.30Q496 493.30 486.50 502.80Q477 512.30 477 526.30ZM636 429.30L614 429.30L614 408.30Q613 397.30 603 396.30L598 396.30Q587 397.30 586 408.30L586 429.30L565 429.30Q554 430.30 553 441.30L553 446.30Q554 457.30 565 458.30L586 458.30L586 479.30Q587 490.30 598 491.30L603 491.30Q613 490.30 614 479.30L614 458.30L636 458.30Q646 457.30 647 446.30L647 441.30Q646 431.30 636 429.30ZM456 429.30L435 429.30L435 408.30Q434 397.30 423 396.30L419 396.30Q408 397.30 407 408.30L407 429.30L384 429.30Q373 430.30 372 441.30L372 446.30Q373 457.30 384 458.30L405 458.30L405 479.30Q406 490.30 417 491.30L422 491.30Q427 491.30 431 487.80Q435 484.30 435 479.30L435 458.30L456 458.30Q461 458.30 464.50 454.80Q468 451.30 468 446.30L468 441.30Q468 436.30 464.50 432.80Q461 429.30 456 429.30ZM600 526.30Q595 526.30 591.50 529.80Q588 533.30 588 539.30Q587 565.30 565.50 582.80Q544 600.30 511.50 600.30Q479 600.30 457 582.80Q435 565.30 434 539.30Q434 533.30 430.50 529.80Q427 526.30 421.50 526.30Q416 526.30 412.50 529.80Q409 533.30 409 539.30Q410 575.30 439 599.80Q468 624.30 511.50 624.30Q555 624.30 584 599.80Q613 575.30 614 539.30Q614 533.30 610 529.80Q606 526.30 600 526.30Z"/></svg>