<svg xmlns="http://www.w3.org/2000/svg" viewBox="177.76923076923077 16 703.7307692307693 748.0714285714284"><path d="M881 548.07L881 388.07Q880 329.07 845.50 285.07Q811 241.07 753 226.07L745 224.07L745 369.07Q745 375.07 740.50 378.57Q736 382.07 731 381.07Q716 378.07 700 378.07L562 378.07L562 350.07Q562 334.07 573 323.07Q602 296.07 617 261.07Q632 226.07 631 187.07Q626 116.07 579 68.57Q532 21.07 461 16.07Q425 15.07 392 28.07Q359 41.07 333 66.07Q307 91.07 293.50 123.57Q280 156.07 280 192.07L280 294.07L312 294.07Q319 304.07 328.50 314.07Q338 324.07 337 338.07L337 381.07Q259 397.07 215 457.57Q171 518.07 179 597.07Q192 671.07 246.50 717.07Q301 763.07 376 764.07L701 764.07Q725 764.07 747 757.07Q782 747.07 811 726.07Q821 719.07 829 710.07L834 706.07Q857 683.07 869 654.57Q881 626.07 881 594.07L881 558.07Q882 553.07 881 548.07ZM469 123.07Q452 123.07 440.50 134.57Q429 146.07 429 163.07Q429 180.07 440.50 191.57Q452 203.07 469 203.07Q486 203.07 497 191.57Q508 180.07 508.50 163.07Q509 146.07 497 134.57Q485 123.07 469 123.07ZM324 247.07L218 247.07Q197 246.07 186 263.57Q175 281.07 186 299.07Q197 317.07 218 316.07L324 316.07Q345 317.07 356 299.07Q367 281.07 356 263.57Q345 246.07 324 247.07Z"/></svg>