<svg xmlns="http://www.w3.org/2000/svg" viewBox="64 37 895.9411764705883 833.470588235294"><path d="M337 327.47L337 805.47L698 805.47Q731 804.47 754.50 785.97Q778 767.47 786 736.47L895 391.47Q897 384.47 896 376.47Q895 368.47 893 365.47Q884 354.47 861 354.47L519 354.47Q566 239.47 557 151.47Q553 122.47 542 107.47Q532 95.47 520 97.47Q508 99.47 501 112.47Q487 150.47 473 178.47Q459 202.47 441 226.47Q409 268.47 337 327.47ZM269 354.47L192 354.47Q156 354.47 140 374.47Q128 388.47 128 407.47L128 755.47Q128 765.47 137 782.47Q143 794.47 156.50 800.97Q170 807.47 187 805.47L269 805.47ZM701 869.47L337 869.47L337 870.47L269 870.47L269 869.47L187 869.47Q155 872.47 126 857.47Q97 842.47 81 814.47Q64 781.47 64 755.47L64 407.47Q64 376.47 80.50 348.97Q97 321.47 125 306.47Q139 299.47 156 295.47Q166 293.47 187 290.47L281 290.47Q359 227.47 391 186.47Q407 165.47 420 139.47Q435 110.47 449 67.47Q459 42.47 489 38.47Q516 33.47 547 45.47Q578 57.47 592 77.47Q607 91.47 616 130.47Q624 166.47 624 205.47Q624 253.47 609 290.47L861 290.47Q886 290.47 906 298.47Q928 307.47 943 326.47Q955 342.47 958.50 364.97Q962 387.47 957 407.47L847 755.47Q835 804.47 794.50 835.97Q754 867.47 701 869.47Z"/></svg>