<svg viewBox="0 0 18 18" xmlns="http://www.w3.org/2000/svg"><rect opacity="0.01" width="100%" height="100%"></rect><path fill-rule="evenodd" clip-rule="evenodd" d="M13.1646 1.5H3.4935C2.47059 1.5 1.63367 2.34375 1.63367 3.375V13.875C1.63367 14.9063 2.47059 15.75 3.4935 15.75H13.1646C14.1876 15.75 15.0245 14.9063 15.0245 13.875V3.375C15.0245 2.34375 14.1876 1.5 13.1646 1.5ZM13.1646 3C13.3663 3 13.5366 3.17175 13.5366 3.375V13.875C13.5366 14.0783 13.3663 14.25 13.1646 14.25H3.4935C3.2919 14.25 3.12154 14.0783 3.12154 13.875V3.375C3.12154 3.17175 3.2919 3 3.4935 3H13.1646Z"></path><path fill-rule="evenodd" clip-rule="evenodd" d="M16.5523 3.75C16.4727 3.75 16.3916 3.7575 16.3105 3.7725L14.749 4.0665C14.0497 4.1985 13.5364 4.88175 13.5364 5.682V11.304C13.5364 12.105 14.0497 12.7882 14.749 12.9202L16.3105 13.2135C16.3916 13.2292 16.4727 13.236 16.5523 13.236C17.3364 13.236 18 12.5167 18 11.598V5.38875C18 4.46925 17.3364 3.75 16.5523 3.75ZM16.4883 5.26575C16.501 5.29275 16.5121 5.33325 16.5121 5.38875V11.598C16.5121 11.6527 16.501 11.694 16.4883 11.721L15.0637 11.4532C15.0481 11.43 15.0242 11.3805 15.0242 11.304V5.682C15.0242 5.60625 15.0481 5.556 15.0637 5.5335L16.4883 5.26575Z"></path><path fill-rule="evenodd" clip-rule="evenodd" d="M4.60942 5.24609C4.60942 4.83188 4.94249 4.49609 5.35336 4.49609H7.58516C7.99602 4.49609 8.32909 4.83188 8.32909 5.24609C8.32909 5.66031 7.99602 5.99609 7.58516 5.99609H5.35336C4.94249 5.99609 4.60942 5.66031 4.60942 5.24609Z"></path></svg>