<svg xmlns="http://www.w3.org/2000/svg" viewBox="119 19 784 739"><path d="M392 214Q391 253 365 279Q339 305 300 305Q261 305 235 279Q209 253 209 214Q209 175 235 148.50Q261 122 300 122Q339 122 365 148.50Q391 175 392 214ZM573 307Q634 306 674.50 265.50Q715 225 717 164Q716 103 675.50 62Q635 21 574 19Q513 21 472 61.50Q431 102 429 163Q429 192 440 218Q451 244 471.50 264.50Q492 285 518 296Q544 307 573 307ZM827 402L763 439L763 391Q762 360 742 340Q722 320 691 319L191 319Q160 320 140 340Q120 360 119 391L119 686Q120 717 140 737Q160 757 191 758L691 758Q721 758 742 737Q763 716 763 686L763 662L827 700Q839 707 852.50 707Q866 707 878 700Q890 693 896.50 681.50Q903 670 903 656L903 447Q903 433 896.50 421.50Q890 410 878 403Q866 396 852.50 396Q839 396 827 402ZM425 451L549 523Q560 531 560 544Q560 557 549 565L425 637Q413 643 401 636Q389 629 388 616L388 472Q389 459 401 452Q413 445 425 451Z"/></svg>