<svg viewBox="0 0 18 18" xmlns="http://www.w3.org/2000/svg"><rect opacity="0.01" width="100%" height="100%"></rect><path fill-rule="evenodd" clip-rule="evenodd" d="M3.375 1.875H10.875C12.739 1.875 14.25 3.38604 14.25 5.25V7.875V8.625C14.25 9.03921 14.5858 9.375 15 9.375C15.4142 9.375 15.75 9.03921 15.75 8.625V7.875V5.25C15.75 2.55761 13.5674 0.375 10.875 0.375H3.375C2.33947 0.375 1.5 1.21447 1.5 2.25V15C1.5 16.0355 2.33947 16.875 3.375 16.875H6.75H7.5C7.91421 16.875 8.25 16.5392 8.25 16.125C8.25 15.7108 7.91421 15.375 7.5 15.375H6.75H3.375C3.16789 15.375 3 15.2071 3 15V2.25C3 2.04289 3.16789 1.875 3.375 1.875ZM10.4 8.51962C10.8 8.28868 10.8 7.71132 10.4 7.48038L7.7 5.92154C7.3 5.6906 6.8 5.97927 6.8 6.44115V9.55885C6.8 10.0207 7.3 10.3094 7.7 10.0785L10.4 8.51962ZM15.518 14.2511L14.3215 16.3234H11.9285L10.7321 14.2511L11.9285 12.1787H14.3215L15.518 14.2511ZM16.817 13.5011C17.0849 13.9652 17.0849 14.537 16.817 15.0011L15.6205 17.0734C15.3526 17.5375 14.8574 17.8234 14.3215 17.8234H11.9285C11.3926 17.8234 10.8974 17.5375 10.6295 17.0734L9.43302 15.0011C9.16507 14.537 9.16507 13.9652 9.43302 13.5011L10.6295 11.4287C10.8974 10.9646 11.3926 10.6787 11.9285 10.6787H14.3215C14.8574 10.6787 15.3526 10.9646 15.6205 11.4287L16.817 13.5011ZM13.125 13.3125C12.6072 13.3125 12.1875 13.7322 12.1875 14.25C12.1875 14.7678 12.6072 15.1875 13.125 15.1875C13.6428 15.1875 14.0625 14.7678 14.0625 14.25C14.0625 13.7322 13.6428 13.3125 13.125 13.3125Z"></path></svg>