<svg viewBox="0 0 16 16" fill="none" xmlns="http://www.w3.org/2000/svg"><path fill-rule="evenodd" clip-rule="evenodd" d="M8.12727 3.51624C8.13095 3.76092 8.33229 3.96226 8.57697 3.96594L11.2666 4.00641L8.59834 6.67471C7.19164 5.57169 5.1819 5.63939 3.92311 6.89818C2.55983 8.26146 2.5936 10.5056 3.99854 11.9105C5.40348 13.3154 7.64757 13.3492 9.01086 11.9859C10.2696 10.7271 10.3373 8.71738 9.23431 7.31067L11.9026 4.64238L11.9431 7.33205C11.9468 7.57672 12.1481 7.77806 12.3928 7.78174C12.6374 7.78542 12.8328 7.59006 12.8291 7.34538L12.7726 3.58614C12.7689 3.34146 12.5675 3.14013 12.3229 3.13645L8.56363 3.07988C8.31895 3.07619 8.12359 3.27156 8.12727 3.51624ZM8.37487 11.3499C7.35241 12.3724 5.66934 12.3471 4.61564 11.2934C3.56193 10.2397 3.53661 8.55661 4.55907 7.53414C5.58153 6.51168 7.2646 6.53701 8.31831 7.59071C9.37201 8.64442 9.39734 10.3275 8.37487 11.3499Z" fill="#63A9FF"/></svg>