<svg xmlns="http://www.w3.org/2000/svg" viewBox="110 55 804 658"><path d="M184 156L510 380Q512 381 514 380L840 156Q837 144 827 136Q817 128 805 128L219 128Q207 128 197 136Q187 144 184 156ZM468 440L183 244L183 603Q183 619 193.50 629.50Q204 640 219 640L805 640Q820 640 830.50 629.50Q841 619 841 603L841 244L556 440Q536 454 512 454Q488 454 468 440ZM914 165L914 174L914 603Q914 633 899.50 658.50Q885 684 859.50 698.50Q834 713 805 713L219 713Q190 713 164.50 698.50Q139 684 124.50 658.50Q110 633 110 603L110 165Q110 135 124.50 109.50Q139 84 164.50 69.50Q190 55 219 55L805 55Q834 55 859.50 69.50Q885 84 899.50 109.50Q914 135 914 165Z"/></svg>