<svg xmlns="http://www.w3.org/2000/svg" viewBox="140 23 742 747"><path d="M881 671L882 358Q878 216 784 121.50Q690 27 548 23L474 23Q332 27 238 121.50Q144 216 140 358L140 671Q140 679 145 684.50Q150 690 158 690L200 690Q210 726 230.50 748Q251 770 289 770L387 770Q403 770 413.50 759.50Q424 749 424 734L426 449Q426 434 415 423Q404 412 389 412L289 412Q262 412 238 425L238 351Q240 249 308.50 181Q377 113 479 110L547 110Q649 113 717 181Q785 249 788 351L788 426Q763 412 734 412L634 412Q619 412 608 423Q597 434 597 449L597 734Q597 749 607.50 759.50Q618 770 634 770L732 770Q770 770 790.50 748Q811 726 821 690L863 690Q871 690 876 684.50Q881 679 881 671ZM646 722ZM646 690L646 494Q647 461 679 461L680 461Q713 461 713 494L712 690Q712 722 680 722L679 722Q646 722 646 690ZM307 722ZM307 690L308 494Q308 461 340 461L341 461Q374 461 374 494L373 690Q373 722 341 722L340 722Q307 722 307 690Z"/></svg>