<svg xmlns="http://www.w3.org/2000/svg" viewBox="107 20.21739130434782 810 755.5652173913041"><path d="M612 345Q625 355 631.50 368.50Q638 382 638 398Q638 414 631.50 427.50Q625 441 612 451L393 625L230 758Q213 772 193 775Q173 778 153 769.50Q133 761 121 744.50Q109 728 107 707L107 90Q108 69 120.50 52Q133 35 152.50 26.50Q172 18 192.50 21Q213 24 230 37L393 169ZM811 772Q766 770 736 741Q706 712 704 668L704 130Q706 85 736 55Q766 25 811 24Q856 25 886 55Q916 85 917 130L917 668Q915 712 885 741Q855 770 811 772Z"/></svg>