<svg xmlns="http://www.w3.org/2000/svg" viewBox="117 32 811 768"><path d="M653 277Q634 219 600 146.50Q566 74 527 32L518 32L397 273L130 318L122 323L117 331L311 523L271 791L271 800Q343 785 401 742Q459 699 527 678L774 800Q784 748 768.50 691Q753 634 747 580L836 567L836 563Q812 562 789 561Q766 560 742 559L734 527L928 339L928 318ZM499 533Q495 540 491 546Q619 555 747 567Q699 584 563 587.50Q427 591 373 576Q372 575 369.50 574Q367 573 365 572Q420 545 503 482Q586 419 625 371L361 354L361 350Q458 341 555 329Q602 328 657.50 330.50Q713 333 749 350L757 350Q628 443 499 533Z"/></svg>