<svg xmlns="http://www.w3.org/2000/svg" viewBox="181 15 656 739.0588235294118"><path d="M777 15.06L778 15.06L241 15.06Q217 14.06 199.50 30.06Q182 46.06 181 69.06L181 700.06Q183 724.06 199.50 739.06Q216 754.06 240 754.06L777 754.06Q802 754.06 818.50 739.06Q835 724.06 837 700.06L837 69.06Q835 45.06 818.50 30.06Q802 15.06 777 15.06ZM298 552.06L720 552.06Q731 552.06 738.50 544.56Q746 537.06 746 526.06Q746 515.06 738.50 507.56Q731 500.06 720 499.06L298 499.06Q287 500.06 279.50 507.56Q272 515.06 272 526.06Q272 537.06 279.50 544.56Q287 552.06 298 552.06ZM720 606.06L298 606.06Q287 606.06 279.50 613.56Q272 621.06 272 632.56Q272 644.06 279.50 651.06Q287 658.06 298 659.06L720 659.06Q731 658.06 738.50 651.06Q746 644.06 746 632.56Q746 621.06 738.50 613.56Q731 606.06 720 606.06ZM272 110.06ZM352 110.06L666 110.06Q746 110.06 746 190.06L746 345.06Q746 425.06 666 425.06L352 425.06Q272 425.06 272 345.06L272 190.06Q272 110.06 352 110.06ZM405 234.06ZM356 234.06Q356 248.06 362.50 259.06Q369 270.06 380.50 277.06Q392 284.06 405 284.06Q418 284.06 429.50 277.06Q441 270.06 447.50 259.06Q454 248.06 454 234.06Q454 213.06 440 199.56Q426 186.06 405 186.06Q384 186.06 370 199.56Q356 213.06 356 234.06ZM376 425.06L496 281.06Q510 265.06 530.50 265.06Q551 265.06 565 281.06L686 425.06Z"/></svg>