<svg xmlns="http://www.w3.org/2000/svg" viewBox="170.76470588235296 128 681.144385026738 508"><path d="M841 367L755 453Q749 459 740.50 462Q732 465 725 465Q707 465 695 453L610 367Q600 357 597.50 345Q595 333 602 320Q614 295 640 295L683 295L683 252Q682 233 670.50 221.50Q659 210 640 209L384 209Q375 210 367 214L354 222L326 214Q312 210 299 209Q279 210 260 218Q274 179 306.50 154Q339 129 384 128L640 128Q696 129 731.50 165Q767 201 768 256L768 299L811 299Q824 299 834.50 305.50Q845 312 849 325Q853 335 851.50 347.50Q850 360 841 367ZM640 636L384 636Q328 635 292.50 599.50Q257 564 256 508L256 465L213 465Q200 465 189.50 459Q179 453 175 440Q169 427 171.50 415Q174 403 183 393L269 307Q281 295 299 295Q317 295 329 307L414 393Q424 403 426.50 415Q429 427 422 440Q419 453 408 459Q397 465 384 465L341 465L341 508Q342 527 353.50 538.50Q365 550 384 551L640 551Q658 551 670 538Q694 551 725 551Q735 550 744.50 548.50Q754 547 764 546Q750 586 716.50 610.50Q683 635 640 636Z"></path></svg>