<svg xmlns="http://www.w3.org/2000/svg" viewBox="0 -128 1024 1024"><path d="M512 896Q295 890 150.50 745.50Q6 601 0 384Q6 167 150.50 22.50Q295-122 512-128Q729-122 873.50 22.50Q1018 167 1024 384Q1018 601 873.50 745.50Q729 890 512 896ZM736 256L736 128L672 128L672 186Q594 125 499.50 128.50Q405 132 330 202Q255 280 255 382.50Q255 485 330 563Q408 638 510.50 638Q613 638 691 563L688 560Q695 553 698 545Q701 537 701 525Q700 505 686.50 491Q673 477 653 477Q638 477 627 483.50Q616 490 611 502Q561 541 501.50 538.50Q442 536 397 493Q349 443 349 379.50Q349 316 397 266Q442 223 498.50 219.50Q555 216 605 250L541 250L541 314L733 314L733 256Z"/></svg>