<svg xmlns="http://www.w3.org/2000/svg" viewBox="3 -28 1022 808"><path d="M573 309L44 309Q27 309 15 322Q3 335 3 354L3 398Q3 417 15 430Q27 443 44 443L573 443Q591 443 603 430Q615 417 615 398L615 354Q615 335 603 322Q591 309 573 309ZM573 645L44 645Q27 646 15 658.50Q3 671 3 691L3 734Q3 754 15 766.50Q27 779 44 780L573 780Q591 779 603 766.50Q615 754 615 734L615 691Q615 671 603 658.50Q591 646 573 645ZM44 107L573 107Q591 106 603 93.50Q615 81 615 61L615 18Q615-1 603-14Q591-27 573-28L44-28Q27-27 15-14Q3-1 3 18L3 61Q3 81 15 93.50Q27 106 44 107ZM733 780L773 780Q791 779 802.50 766.50Q814 754 815 734L815 277L984 277Q1001 276 1013 263Q1025 250 1025 231L809-5Q804-15 794.50-21Q785-27 774-28L734-28Q716-27 704-14Q692-1 692 18L692 734Q692 753 704 766Q716 779 733 780Z"/></svg>