<svg xmlns="http://www.w3.org/2000/svg" viewBox="107 -39.764705882352935 832 848.7647058823529"><path d="M461 35.24L819 385.24L469 735.24Q457 748.24 457 764.74Q457 781.24 469 795.24Q477 807.24 496 808.74Q515 810.24 529 803.24L939 385.24L529-32.76Q515-39.76 495-39.76Q475-39.76 461-32.76Q454-18.76 454 1.24Q454 21.24 461 35.24ZM188 803.24L597 385.24L188-32.76Q174-39.76 153.50-39.76Q133-39.76 119-32.76Q107-19.76 107-3.26Q107 13.24 119 27.24L478 385.24L128 735.24Q115 748.24 115 764.74Q115 781.24 128 795.24Q136 807.24 155 808.74Q174 810.24 188 803.24Z"/></svg>