<svg xmlns="http://www.w3.org/2000/svg" viewBox="171 85 640 594"><path d="M384 423ZM341 423Q342 405 354 392.50Q366 380 384 380Q402 380 414 392.50Q426 405 426 423Q426 441 414 453Q402 465 384 465Q366 465 354 453Q342 441 341 423ZM597 423ZM555 423Q555 405 567 392.50Q579 380 597 380Q615 380 627.50 392.50Q640 405 640 423Q640 441 627.50 453Q615 465 597 465Q579 465 567 453Q555 441 555 423ZM674 171L687 158Q700 145 700 128.50Q700 112 687 99Q674 86 657.50 86Q641 86 627 98L555 167L422 167L354 94Q341 85 324.50 85Q308 85 294 94Q282 107 282 124Q282 141 294 154L307 167Q248 184 210 229.50Q172 275 171 337L171 508Q173 580 221 628.50Q269 677 341 679L640 679Q712 677 760.50 628.50Q809 580 811 508L811 337Q809 272 771 227Q733 182 674 171ZM725 337L725 508Q724 544 700 568Q676 592 640 593L341 593Q305 592 281 568Q257 544 256 508L256 337Q257 301 281 277Q305 253 341 252L640 252Q676 253 700 277Q724 301 725 337Z"></path></svg>