<svg xmlns="http://www.w3.org/2000/svg" viewBox="128 85 768 598"><path d="M811 683L213 683Q177 682 153 657.50Q129 633 128 597L128 171Q129 135 153 110.50Q177 86 213 85L811 85Q847 86 871 110.50Q895 135 896 171L896 597Q895 633 871 657.50Q847 682 811 683ZM171 597Q171 617 182.50 628.50Q194 640 213 640L341 640L171 469ZM213 128Q194 128 182.50 139.50Q171 151 171 171L171 299L341 128ZM853 171Q853 151 841.50 139.50Q830 128 811 128L683 128L853 299ZM853 597L853 469L683 640L811 640Q830 640 841.50 628.50Q853 617 853 597Z"></path></svg>