<svg xmlns="http://www.w3.org/2000/svg" viewBox="79 -46 851 834.0373831775701"><path d="M845 774.04L659 582.04Q549 668.04 417.50 663.54Q286 659.04 186 563.04Q80 452.04 79 310.04Q78 168.04 179 57.04Q285-47.96 426-45.96Q567-43.96 678 57.04Q770 152.04 779.50 276.04Q789 400.04 717 505.04L915 704.04Q930 719.04 930 739.04Q930 759.04 915 773.54Q900 788.04 880 788.04Q860 788.04 845 774.04ZM614 492.04Q691 412.04 691 310.04Q691 208.04 614 128.04Q534 51.04 432 51.04Q330 51.04 250 128.04Q173 208.04 173 310.04Q173 412.04 250 492.04Q330 569.04 432 567.04Q534 565.04 614 492.04Z"/></svg>