<svg xmlns="http://www.w3.org/2000/svg" viewBox="0 -128 1024 1024"><path d="M512-128Q295-122 150.50 22.50Q6 167 0 384Q6 601 150.50 745.50Q295 890 512 896Q729 890 873.50 745.50Q1018 601 1024 384Q1018 167 873.50 22.50Q729-122 512-128ZM589 266Q579 266 570 262L464 371L468 389Q470 398 470 410Q471 434 458 454L531 528Q546 522 560 522Q597 522 621 547Q645 572 646 611Q645 648 621 674Q597 700 560 700Q523 700 498.50 675Q474 650 474 611Q474 597 480 582L400 499Q391 503 378 502Q338 501 312 474.50Q286 448 285 406Q286 367 312 339.50Q338 312 378 310Q385 310 393.50 312Q402 314 410 317L512 211Q509 204 507.50 195.50Q506 187 506 179Q507 145 530.50 121Q554 97 588.50 97Q623 97 647 121Q671 145 672 182Q671 217 647 241Q623 265 589 266Z"/></svg>