<svg xmlns="http://www.w3.org/2000/svg" viewBox="0 -128 1024 931"><path d="M140 803Q197 801 237.50 761Q278 721 279 663L279 12Q278-46 237.50-86Q197-126 140-128Q82-126 42-86Q2-46 0 12L0 663Q2 721 42 761Q82 801 140 803ZM512 803Q570 801 610 761Q650 721 652 663L652 291Q650 233 610 193Q570 153 512 151Q454 153 414 193Q374 233 372 291L372 663Q374 721 414 761Q454 801 512 803ZM884 803Q942 801 982 761Q1022 721 1024 663L1024 477Q1022 420 982 379.50Q942 339 884 338Q827 339 786.50 379.50Q746 420 745 477L745 663Q746 721 786.50 761Q827 801 884 803Z"/></svg>