<svg xmlns="http://www.w3.org/2000/svg" viewBox="171 -128 682 1016.7249999999999"><path d="M256 830.72Q379 888.72 512 888.72Q645 888.72 768 830.72Q772 811.72 720 674.72Q668 537.72 512 518.72Q356 537.72 304 674.72Q252 811.72 256 830.72ZM739 6.72L617 6.72L671-84.28Q677-95.28 674-106.28Q671-117.28 660-123.78Q649-130.28 638-126.78Q627-123.28 620-112.28L552 6.72L464 6.72L395-112.28Q389-123.28 378-126.78Q367-130.28 356-123.78Q345-117.28 342.50-106.28Q340-95.28 344-84.28L398 6.72L285 6.72Q236 7.72 204 40.22Q172 72.72 171 120.72L171 404.72Q172 452.72 204 485.22Q236 517.72 285 518.72L739 518.72Q788 517.72 820 485.22Q852 452.72 853 404.72L853 120.72Q852 72.72 820 40.22Q788 7.72 739 6.72Z"/></svg>