<svg xmlns="http://www.w3.org/2000/svg" viewBox="64 -14 890.1935483870969 809"><path d="M801 122L750 122L794 77Q809 62 809 39Q809 16 794 1Q779-14 756-14Q733-14 717 1L589 122L436 122L307 1Q292-14 269-14Q246-14 231 1Q216 16 216 39Q216 62 231 77L275 122L224 122Q155 124 110.50 169Q66 214 64 282L64 628Q66 702 110.50 747.50Q155 793 224 795L794 795Q863 793 908 748.50Q953 704 954 635L954 282Q957 214 913.50 169Q870 124 801 122ZM846 289L846 628Q845 652 828.50 669Q812 686 788 686L231 686Q207 686 190 669Q173 652 173 628L173 289Q174 264 190 248Q206 232 231 231L788 231Q813 232 829 248Q845 264 846 289ZM346 346Q322 347 305.50 363.50Q289 380 288 404L288 462Q289 486 305 502.50Q321 519 346 519Q371 519 387 502.50Q403 486 404 462L404 404Q403 380 386.50 363.50Q370 347 346 346ZM679 346Q655 347 638.50 363.50Q622 380 621 404L621 462Q622 486 638 502.50Q654 519 679 519Q704 519 720 502.50Q736 486 737 462L737 404Q736 380 719.50 363.50Q703 347 679 346Z"/></svg>