<svg xmlns="http://www.w3.org/2000/svg" viewBox="122 -64 784.1666660308838 886"><path d="M870 310L704 310L704 502Q704 531 686.50 548.50Q669 566 640 566L384 566Q355 566 337.50 548.50Q320 531 320 502L320 310L154 310Q139 310 130.50 301.50Q122 293 122 278Q122 273 125.50 265.50Q129 258 134 252L493-55Q503-64 515.50-64Q528-64 538-55L896 252Q905 262 906 274.50Q907 287 902 297L886 306Q880 310 870 310ZM192 694L832 694Q861 694 878.50 711.50Q896 729 896 758Q896 787 878.50 804.50Q861 822 832 822L192 822Q163 822 145.50 804.50Q128 787 128 758Q128 729 145.50 711.50Q163 694 192 694Z"/></svg>