<svg xmlns="http://www.w3.org/2000/svg" viewBox="0 -128 1024 1024"><path d="M853-128L171-128Q136-128 105-115Q74-102 50-78Q26-54 13-23Q0 8 0 43L0 725Q2 798 50 846Q98 894 171 896L853 896Q888 896 919 883Q950 870 974 846Q998 822 1011 791Q1024 760 1024 725L1024 43Q1024 8 1011-23Q998-54 974-78Q950-102 919-115Q888-128 853-128ZM853 725L171 725L171 555Q190 392 322.50 340Q455 288 467 292Q404 273 370 221Q336 169 344 104Q355 39 402.50-1.50Q450-42 516-42Q582-40 627.50 2.50Q673 45 682 110Q688 175 652 226Q616 277 552 294Q573 288 703.50 341.50Q834 395 853 555L854 705Q853 731 853 725Z"/></svg>