<svg xmlns="http://www.w3.org/2000/svg" viewBox="171 128 640 512"><path d="M555 640L555 555Q627 553 675 504.50Q723 456 725 384Q723 312 675 263.50Q627 215 555 213L555 128Q663 131 735.50 203.50Q808 276 811 384Q808 492 735.50 564.50Q663 637 555 640ZM469 640L427 640L341 555L299 555Q243 553 207.50 517.50Q172 482 171 427L171 341Q172 286 207.50 250.50Q243 215 299 213L341 213L427 128L469 128Q489 128 500.50 139.50Q512 151 512 171L512 597Q512 617 500.50 628.50Q489 640 469 640ZM683 384Q681 440 645.50 475.50Q610 511 555 512L555 256Q610 257 645.50 292.50Q681 328 683 384Z"></path></svg>