<svg xmlns="http://www.w3.org/2000/svg" viewBox="213 128 555 512"><path d="M597 555L597 512Q653 511 688.50 475.50Q724 440 725 384Q724 328 688.50 292.50Q653 257 597 256L597 213Q670 215 718 263.50Q766 312 768 384Q766 456 718 504.50Q670 553 597 555ZM512 640L469 640L384 555L341 555Q286 553 250.50 517.50Q215 482 213 427L213 341Q215 286 250.50 250.50Q286 215 341 213L384 213L469 128L512 128Q531 128 542.50 139.50Q554 151 555 171L555 597Q554 617 542.50 628.50Q531 640 512 640ZM683 384Q682 420 657.50 444Q633 468 597 469L597 299Q633 300 657.50 324Q682 348 683 384Z"></path></svg>