<svg viewBox="0 0 18 18" xmlns="http://www.w3.org/2000/svg"><path opacity="0.01" d="M0 0H18V18H0V0Z"></path><path fill-rule="evenodd" clip-rule="evenodd" d="M15.3747 6H11.4604C10.1074 6 8.99969 7.10775 8.99969 8.46075V9.53925C8.99969 10.8922 10.1074 12 11.4604 12H15.3747C16.4104 12 17.2497 11.1607 17.2497 10.125V7.875C17.2497 6.83925 16.4104 6 15.3747 6ZM15.3747 7.50117C15.5809 7.50117 15.7497 7.66992 15.7497 7.87617V10.1262C15.7497 10.3324 15.5809 10.5012 15.3747 10.5012H11.4604C10.9399 10.5012 10.4997 10.0609 10.4997 9.54042V8.46192C10.4997 7.94142 10.9399 7.50117 11.4604 7.50117H15.3747Z"></path><path fill-rule="evenodd" clip-rule="evenodd" d="M3.32475 1.5H14.6745C15.6787 1.5 16.5 2.32125 16.5 3.3255V6.75391H15V11.2539H16.5V14.6745C16.5 15.6787 15.6787 16.5 14.6745 16.5H3.32475C2.3205 16.5 1.5 15.6787 1.5 14.6745V3.3255C1.5 2.32125 2.3205 1.5 3.32475 1.5ZM15 3.32667C15 3.14967 14.8507 3.00117 14.6745 3.00117H3.32474C3.14849 3.00117 2.99999 3.14967 2.99999 3.32667V14.6757C2.99999 14.8527 3.14849 15.0012 3.32474 15.0012H14.6745C14.8507 15.0012 15 14.8527 15 14.6757V3.32667Z"></path></svg>