<svg xmlns="http://www.w3.org/2000/svg" viewBox="117 75 766.7036895751953 661.3214285714287"><path d="M693 393.32Q685 390.32 680.50 386.32Q676 382.32 681 372.32Q690 347.32 690 326.32Q690 305.32 681 290.32Q660 262.32 614.50 262.82Q569 263.32 510 290.32Q508 292.32 498 293.82Q488 295.32 491 282.32Q500 251.32 498 226.82Q496 202.32 482 186.32Q447 153.32 376 183.32Q305 213.32 230 290.32Q177 349.32 147.50 407.32Q118 465.32 117 519.32Q122 621.32 218 678.32Q314 735.32 439 736.32Q598 732.32 691.50 660.32Q785 588.32 787 506.32Q786 460.32 757.50 432.32Q729 404.32 693 393.32ZM439 687.32Q341 696.32 272 657.82Q203 619.32 194 551.32Q190 482.32 250.50 430.32Q311 378.32 410 365.32Q508 357.32 577 395.32Q646 433.32 655 502.32Q659 571.32 598.50 623.82Q538 676.32 439 687.32ZM832 145.32Q794 102.32 743 85.32Q692 68.32 640 79.32Q629 83.32 622 92.82Q615 102.32 617 116.32Q620 129.32 629.50 135.82Q639 142.32 651 139.32Q688 131.32 724.50 142.82Q761 154.32 787.50 186.82Q814 219.32 821 258.82Q828 298.32 817 335.32Q814 348.32 819.50 359.32Q825 370.32 836.50 373.82Q848 377.32 858.50 371.82Q869 366.32 873 354.32Q873 354.32 873 354.32Q890 302.32 880 246.82Q870 191.32 832 145.32ZM745 342.32Q755 345.32 764 340.82Q773 336.32 777 325.32Q785 298.32 779.50 271.32Q774 244.32 755 222.32Q736 200.32 711 192.32Q686 184.32 661 190.32Q652 192.32 646.50 201.82Q641 211.32 642.50 222.82Q644 234.32 653 239.82Q662 245.32 672 244.32Q685 240.32 697 244.82Q709 249.32 718.50 259.82Q728 270.32 730.50 283.82Q733 297.32 730 310.32Q725 318.32 730 328.32Q735 338.32 745 342.32ZM452 436.32Q406 423.32 362.50 443.82Q319 464.32 297 508.32Q276 553.32 293.50 593.32Q311 633.32 356 651.32Q406 666.32 452.50 645.82Q499 625.32 521 576.32Q539 529.32 519.50 489.82Q500 450.32 452 436.32ZM405 583.32Q395 599.32 379 604.82Q363 610.32 348 603.82Q333 597.32 329.50 581.82Q326 566.32 335.50 551.32Q345 536.32 361.50 529.82Q378 523.32 392.50 529.82Q407 536.32 411 551.32Q415 566.32 405 583.32ZM446 527.32Q442 534.32 436 536.82Q430 539.32 425 536.32Q412 528.32 418 514.32Q421 508.32 427 505.82Q433 503.32 439 506.32Q452 513.32 446 527.32Z"/></svg>