<svg viewBox="0 0 24 24" fill="none" xmlns="http://www.w3.org/2000/svg"><path fill-rule="evenodd" clip-rule="evenodd" d="M10.2875 5.89431C8.44402 7.73778 8.33615 10.6723 9.94021 12.7211L9.00842 13.6529L5.29482 9.93933C5.04526 9.68977 4.64063 9.68977 4.39107 9.93933C4.1415 10.1889 4.1415 10.5935 4.39107 10.8431L8.10466 14.5567L5.85626 16.8051C5.60064 17.0607 5.60064 17.4751 5.85625 17.7308C6.11187 17.9864 6.52631 17.9864 6.78192 17.7308L9.03033 15.4824L12.744 19.196C12.9935 19.4456 13.3982 19.4456 13.6477 19.196C13.8973 18.9464 13.8973 18.5418 13.6477 18.2922L9.93408 14.5786L10.8659 13.6468C12.9147 15.251 15.8493 15.1432 17.6928 13.2996C19.6894 11.3031 19.6501 8.02688 17.6052 5.98195C15.5603 3.93702 12.284 3.89779 10.2875 5.89431ZM16.7672 12.374C15.2698 13.8714 12.8126 13.842 11.2789 12.3083C9.74521 10.7746 9.71579 8.31741 11.2132 6.82001C12.7106 5.32262 15.1678 5.35204 16.7015 6.88574C18.2352 8.41944 18.2646 10.8766 16.7672 12.374Z" fill="#FF6699"/></svg>