<svg xmlns="http://www.w3.org/2000/svg" viewBox="44 -31 912 823"><path d="M281 218Q254 219 228 219L145 219Q127 219 108.50 225Q90 231 76 243.50Q62 256 53 275.50Q44 295 44 321L44 397L956 397L955 308Q955 295 950 279Q945 263 933 249.50Q921 236 901.50 227Q882 218 852 218L719 218L719 315L281 315ZM955 451L955 503L956 613Q956 642 945.50 660.50Q935 679 919.50 690.50Q904 702 886.50 706.50Q869 711 855 711.50Q841 712 826 711L764 711L719 583L280 583L236 711L173 711Q153 711 128 710.50Q103 710 87 700.50Q71 691 61.50 677.50Q52 664 48 648Q44 632 44 618L44 451ZM163 514Q151 514 142 522.50Q133 531 133 544Q133 557 142 565.50Q151 574 163.50 574Q176 574 185 565.50Q194 557 194 544Q194 531 185 522.50Q176 514 163 514ZM684 638L316 638Q308 664 302 686Q297 705 292 723L284 748Q282 755 281 763Q280 771 282 777.50Q284 784 291.50 788Q299 792 313 792L678 792Q701 792 712 780Q723 768 714 742Q709 729 704.50 711.50Q700 694 695 676Q690 658 684 638ZM336 263L336 35Q336 24 338.50 12Q341 0 348.50-9.50Q356-19 369-25Q382-31 403-31L591-31Q622-31 642.50-16.50Q663-2 663 36L663 263Z"/></svg>