<svg xmlns="http://www.w3.org/2000/svg" viewBox="85 -47 824 854.7647058823528"><path d="M563 726.76L205 376.76L555 26.76Q567 13.76 567-2.74Q567-19.24 555-33.24Q547-45.24 528-46.74Q509-48.24 495-41.24L85 376.76L495 794.76Q509 801.76 529 801.76Q549 801.76 563 794.76Q570 780.76 570 760.76Q570 740.76 563 726.76ZM836-41.24L427 376.76L836 794.76Q850 807.76 866.50 807.76Q883 807.76 896 794.76Q909 781.76 909 765.26Q909 748.76 896 734.76L546 376.76L896 26.76Q909 13.76 909-2.74Q909-19.24 896-33.24Q888-45.24 869-46.74Q850-48.24 836-41.24Z"/></svg>