<svg xmlns="http://www.w3.org/2000/svg" viewBox="85 -43 854 854"><path d="M512-43Q331-38 210.50 82.50Q90 203 85 384Q90 565 210.50 685.50Q331 806 512 811Q693 806 813.50 685.50Q934 565 939 384Q934 203 813.50 82.50Q693-38 512-43ZM747 427L422 427L525 529Q538 542 538 558.50Q538 575 524.50 588.50Q511 602 494.50 602Q478 602 465 589L286 410Q278 403 277 397Q277 394 275 390Q273 386 273 380Q273 362 286 350L288 349Q290 349 290 346L461 175Q474 162 490.50 162Q507 162 520 175Q533 188 533 204.50Q533 221 521 235L414 341L751 341Q770 342 781.50 353.50Q793 365 793 384Q793 403 779.50 414.50Q766 426 747 427Z"/></svg>