<svg xmlns="http://www.w3.org/2000/svg" viewBox="171 128 682 555"><path d="M683 683Q610 681 562 633Q514 585 512 512Q514 440 562 392Q610 344 683 342Q755 344 803 392Q851 440 853 512Q851 585 803 633Q755 681 683 683ZM683 640Q722 640 755 615L576 436Q556 474 555 512Q556 568 591.50 603.50Q627 639 683 640ZM683 384Q643 384 610 410L789 589Q799 573 807 554.50Q815 536 815 517Q811 458 774.50 421.50Q738 385 683 384ZM469 512Q470 535 475 556.50Q480 578 486 598L384 598L320 683L256 598Q220 597 196 572.50Q172 548 171 512L171 214Q172 178 196 153.50Q220 129 256 128L683 128Q719 129 743 153.50Q767 178 768 214L768 316Q749 309 727 304Q705 299 683 299Q591 301 531 361Q471 421 469 512Z"/></svg>