<svg xmlns="http://www.w3.org/2000/svg" viewBox="128 85 768 598"><path d="M811 683L213 683Q177 682 153 657.50Q129 633 128 597L128 171Q129 135 153 110.50Q177 86 213 85L811 85Q847 86 871 110.50Q895 135 896 171L896 597Q895 633 871 657.50Q847 682 811 683ZM853 597L853 171Q853 151 841.50 139.50Q830 128 811 128L213 128Q194 128 182.50 139.50Q171 151 171 171L171 597Q171 617 182.50 628.50Q194 640 213 640L811 640Q830 640 841.50 628.50Q853 617 853 597ZM725 597L640 597L640 427L811 427L811 512L725 512ZM640 341L640 256L640 171L725 171L725 256L811 256L811 341ZM299 512L213 512L213 427L384 427L384 597L299 597ZM213 341L213 256L299 256L299 171L384 171L384 341Z"/></svg>