<svg xmlns="http://www.w3.org/2000/svg" viewBox="171 38 682 640"><path d="M853 332L811 332Q810 248 769.50 181Q729 114 661 72L683 38Q761 84 806.50 161Q852 238 853 332ZM725 332L512 332L619 149Q667 175 696 223Q725 271 725 332ZM512 545Q483 545 457 537Q431 529 405 515L512 332L619 515Q593 529 567 537Q541 545 512 545ZM299 332Q299 271 328 223Q357 175 405 149L512 332ZM213 332L171 332Q172 235 217.50 157.50Q263 80 341 38L363 76Q295 115 254.50 181.50Q214 248 213 332ZM512 631Q553 630 589.50 619.50Q626 609 661 592L683 631Q644 653 602 665Q560 677 512 678Q467 677 423.50 665Q380 653 341 631L363 592Q398 609 434.50 619.50Q471 630 512 631Z"/></svg>