<svg xmlns="http://www.w3.org/2000/svg" viewBox="171 43 682 635"><path d="M853 337L640 337Q640 301 622.50 272Q605 243 576 226L683 43Q761 89 806.50 166Q852 243 853 337ZM512 380Q493 379 481.50 367.50Q470 356 470 337Q470 318 481.50 306.50Q493 295 512 295Q531 295 542.50 306.50Q554 318 554 337Q554 356 542.50 367.50Q531 379 512 380ZM576 448L683 631Q644 654 602 666Q560 678 512 678Q467 678 423.50 666Q380 654 341 631L448 448Q464 455 480 460Q496 465 512 465Q528 465 544 460Q560 455 576 448ZM384 337L171 337Q172 240 217.50 162.50Q263 85 341 43L448 226Q419 243 401.50 272Q384 301 384 337Z"/></svg>