<svg xmlns="http://www.w3.org/2000/svg" viewBox="170.7647058823529 128 682.470588235294 512"><path d="M849 329Q845 315 834.50 307Q824 299 811 299L768 299L768 256Q767 200 731.50 164.50Q696 129 640 128L384 128L469 213L640 213Q659 214 670.50 226.50Q682 239 683 256L683 299L640 299Q627 299 616 305Q605 311 602 324Q595 337 597.50 349Q600 361 610 371L695 457Q702 463 710.50 466Q719 469 725 469Q743 469 755 457L841 371Q850 364 852.50 351.50Q855 339 849 329ZM384 555Q365 554 353.50 542.50Q342 531 341 512L341 469L384 469Q397 469 408 463Q419 457 422 444Q429 431 426.50 419Q424 407 414 397L329 311Q317 299 299 299Q281 299 269 311L183 397Q174 407 171.50 419Q169 431 175 444Q179 457 189.50 463Q200 469 213 469L256 469L256 512Q257 568 292.50 603.50Q328 639 384 640L640 640L555 555ZM265 162L734 631L764 602L294 132Z"/></svg>