<svg xmlns="http://www.w3.org/2000/svg" viewBox="64 -85 896 938"><path d="M853 384Q853 403 850.50 419.50Q848 436 845 452L960 542L875 691L725 649Q703 668 675.50 683.50Q648 699 619 708L597 853L427 853L388 704Q331 678 286 640L149 695L64 546L175 439Q172 424 171.50 410.50Q171 397 171 384Q170 358 175 333L64 222L149 73L299 115Q318 99 341.50 86.50Q365 74 388 64L427-85L597-85L636 64Q687 83 725 115L875 73L960 222L849 329Q852 344 852.50 357.50Q853 371 853 384ZM512 256Q456 257 420.50 292.50Q385 328 384 384Q385 440 420.50 475.50Q456 511 512 512Q568 511 603.50 475.50Q639 440 640 384Q639 328 603.50 292.50Q568 257 512 256Z"/></svg>