<svg xmlns="http://www.w3.org/2000/svg" viewBox="213 128 572 512"><path d="M772 414L742 384L772 354Q785 341 785 324.50Q785 308 772 295Q759 282 742.50 282Q726 282 713 294L683 324L653 294Q639 282 622.50 282Q606 282 593 295Q580 308 580 324.50Q580 341 593 354L623 384L593 414Q580 427 580 443.50Q580 460 593 473Q606 486 622.50 486Q639 486 653 474L683 444L713 474Q726 486 742.50 486Q759 486 772 473Q785 460 785 443.50Q785 427 772 414ZM512 128L469 128L384 213L341 213Q286 215 250.50 250.50Q215 286 213 341L213 427Q215 482 250.50 517.50Q286 553 341 555L384 555L469 640L512 640Q531 640 542.50 628.50Q554 617 555 597L555 171Q554 151 542.50 139.50Q531 128 512 128Z"/></svg>