<svg xmlns="http://www.w3.org/2000/svg" viewBox="128 85 725 594"><path d="M384 423ZM341 423Q342 405 354 392.50Q366 380 384 380Q402 380 414 392.50Q426 405 426 423Q426 441 414 453Q402 465 384 465Q366 465 354 453Q342 441 341 423ZM597 423ZM555 423Q555 405 567 392.50Q579 380 597 380Q615 380 627.50 392.50Q640 405 640 423Q640 441 627.50 453Q615 465 597 465Q579 465 567 453Q555 441 555 423ZM683 209L644 209L695 158Q708 145 708 128.50Q708 112 695 99Q682 86 665.50 86Q649 86 636 98L525 209Q525 208 525 214L461 214L346 94Q332 85 315.50 85Q299 85 286 94Q273 107 273 124Q273 141 286 154L337 209L299 209Q226 211 178 259.50Q130 308 128 380L128 508Q130 580 178 628.50Q226 677 299 679L683 679Q755 677 803 628.50Q851 580 853 508L853 380Q851 308 803 259.50Q755 211 683 209ZM768 380L768 508Q767 544 743 568Q719 592 683 593L299 593Q263 592 238.50 568Q214 544 213 508L213 380Q214 344 238.50 320Q263 296 299 295L683 295Q719 296 743 320Q767 344 768 380Z"/></svg>