<svg xmlns="http://www.w3.org/2000/svg" viewBox="0 -128 1024 1024"><path d="M512-128Q295-122 150.50 22.50Q6 167 0 384Q6 601 150.50 745.50Q295 890 512 896Q729 890 873.50 745.50Q1018 601 1024 384Q1018 167 873.50 22.50Q729-122 512-128ZM685 288Q707 288 721.50 306Q736 324 736 355L736 512Q736 545 718.50 560.50Q701 576 672 576L608 576L608 512Q625 512 632.50 502Q640 492 640 477L640 384L576 384L576 576Q576 601 552 620Q528 639 480 640L480 384L416 384L416 544Q415 554 401.50 564.50Q388 575 368 575Q348 575 334.50 565.50Q321 556 320 544L320 358Q321 331 341.50 310Q362 289 387 288L480 288L480 256L320 256Q320 212 345 186.50Q370 161 416 160L736 160Q735 206 708.50 231Q682 256 640 256L588 256Q575 256 576 256L576 288Z"/></svg>