<svg xmlns="http://www.w3.org/2000/svg" viewBox="176.52631578947364 6 685.0783353733171 773"><path d="M841 450Q824 410 805 383.50Q786 357 768 350L768 339Q767 307 753 284L753 279Q753 273 751.50 266Q750 259 747 254Q741 147 682.50 78Q624 9 521 6Q417 9 358 78Q299 147 294 254Q288 267 288 279L288 284Q274 307 273 339L273 350Q257 357 237 383.50Q217 410 201 450Q180 503 177 543.50Q174 584 190 595Q201 601 217 588.50Q233 576 250 550Q263 608 311 651Q287 660 272.50 675Q258 690 258 708Q260 738 295.50 758Q331 778 384 779Q433 778 467 762Q501 746 510 721L525 721Q534 747 568 762.50Q602 778 651 779Q705 778 740 758Q775 738 777 708Q776 690 762 675Q748 660 723 651Q769 608 783 550Q799 576 815 588.50Q831 601 843 595Q863 584 861.50 543.50Q860 503 841 450Z"/></svg>