<svg xmlns="http://www.w3.org/2000/svg" viewBox="136.21428571428567 -10.640625 753.7857142857143 780.1961364746094"><path d="M519 338.91Q500 302.91 495 262.91Q537 265.91 577 277.91Q550 309.91 519 338.91ZM449 219.91Q441 180.91 438 157.41Q435 133.91 423 62.91Q380 78.91 345 109.91Q381 184.91 398.50 246.91Q416 308.91 438 399.91Q484 395.91 564.50 365.91Q645 335.91 664 268.91Q663 222.91 587 214.91Q511 206.91 449 219.91ZM487 486.91L486 486.91Q424 508.91 379 556.91L422 709.91Q427 729.91 417 746.41Q407 762.91 387.50 767.91Q368 772.91 351.50 762.91Q335 752.91 329 733.91L217 335.91L144 130.91L153 116.91L138 65.91Q133 46.91 142 29.91Q151 12.91 170 7.91Q189 2.91 206 12.91Q223 22.91 228 41.91L228 44.91Q274 14.91 327 0.91Q449-25.09 523.50 7.41Q598 39.91 757 24.91L890 451.91Q769 508.91 688.50 485.91Q608 462.91 487 486.91Z"/></svg>