<svg xmlns="http://www.w3.org/2000/svg" viewBox="266 -128 492 1023"><path d="M327-68ZM266-68Q266-94 283.50-111Q301-128 327-128Q353-128 370.50-111Q388-94 388-67.50Q388-41 370.50-24Q353-7 327-7Q301-7 283.50-24Q266-41 266-68ZM716 854ZM675 854Q676 837 687.50 825.50Q699 814 716.50 814Q734 814 745.50 825.50Q757 837 757 854Q757 871 745.50 883Q734 895 716.50 895Q699 895 687.50 883Q676 871 675 854ZM724 334Q687 315 664 281Q641 247 634 207Q625 158 614 158Q603 158 593 207Q587 247 563.50 281Q540 315 503 334Q436 365 503 395Q540 414 563.50 448Q587 482 593 522Q603 571 614 571Q625 571 634 522Q641 482 664 448Q687 414 724 395Q758 377 758 363Q758 349 724 334Z"/></svg>