<svg xmlns="http://www.w3.org/2000/svg" viewBox="138.55384615384614 29.5 791.4461538461538 738.5"><path d="M682 618.50Q708 618.50 735.50 617.50Q763 616.50 789 618.50Q833 619.50 849 645Q865 670.50 866 711.50Q866 725.50 875 734.50Q884 743.50 897.50 743.50Q911 743.50 920 734.50Q929 725.50 930 711.50Q930 655.50 906.50 611Q883 566.50 823 554.50Q754 548.50 684 554.50Q671 554.50 661.50 563Q652 571.50 651.50 585Q651 598.50 659.50 608Q668 617.50 682 618.50ZM861 390.50Q856 240.50 756 141Q656 41.50 506 37.50Q355 41.50 255.50 141.50Q156 241.50 152 392.50Q156 542.50 256 642.50Q356 742.50 506 746.50Q656 740.50 756 641Q856 541.50 861 390.50ZM696 467.50L696 468.50Q662 467.50 639.50 445Q617 422.50 616.50 388.50Q616 354.50 638.50 332Q661 309.50 695 309.50Q729 309.50 751.50 331.50Q774 353.50 774.50 387.50Q775 421.50 752 444Q729 466.50 696 467.50ZM509 285.50Q475 284.50 452.50 262Q430 239.50 429 205.50Q432 173.50 454 152Q476 130.50 509 130.50Q542 130.50 564 152Q586 173.50 589 205.50Q588 239.50 565.50 262Q543 284.50 509 285.50ZM509 657.50L509 658.50Q476 658.50 453 635Q430 611.50 430.50 578.50Q431 545.50 453 523Q475 500.50 509 498.50Q542 499.50 564.50 521.50Q587 543.50 588 577Q589 610.50 565.50 634Q542 657.50 509 657.50ZM323 467.50L323 468.50Q289 467.50 266.50 445Q244 422.50 244 388.50Q244 354.50 266 332Q288 309.50 322 309.50Q356 309.50 378.50 331.50Q401 353.50 401.50 387Q402 420.50 378.50 444Q355 467.50 323 467.50ZM512 29.50Q397 30.50 304.50 92Q212 153.50 167 259.50Q124 366.50 146 475.50Q168 584.50 248 666.50Q331 746.50 439.50 768Q548 789.50 655 746.50Q761 701.50 822.50 609Q884 516.50 885 401.50Q880 243.50 775 138.50Q670 33.50 512 29.50ZM568 390.50Q567 366.50 550.50 349.50Q534 332.50 509 332.50Q484 332.50 467.50 349.50Q451 366.50 451 391Q451 415.50 467.50 432Q484 448.50 509 448.50Q534 448.50 550.50 432Q567 415.50 568 390.50Z"/></svg>