<svg xmlns="http://www.w3.org/2000/svg" viewBox="147 77 731 617"><path d="M147 77ZM227 77L798 77Q878 77 878 156L878 615Q878 694 798 694L227 694Q147 694 147 615L147 156Q147 77 227 77ZM223 144L300 144L300 202L223 202ZM390 144L467 144L467 202L390 202ZM557 144L634 144L634 202L557 202ZM724 144L802 144L802 202L724 202ZM223 569L300 569L300 627L223 627ZM390 569L467 569L467 627L390 627ZM557 569L634 569L634 627L557 627ZM147 250L878 250L878 520L147 520ZM521 405ZM545 381L547 379Q571 355 594 379L794 578Q817 602 794 625L791 628Q768 651 744 628L545 428Q521 405 545 381ZM708 294L683 294L683 269Q683 264 679 260Q675 256 669 256L666 256Q660 256 656 260Q652 264 652 269L652 294L627 294Q621 294 617 298Q613 302 613 307L613 313Q613 319 617 322.50Q621 326 627 327L652 327L652 351Q652 356 656 360Q660 364 666 364L671 364Q677 364 681 360.50Q685 357 685 351L685 327L710 327Q716 327 720 323Q724 319 724 313L724 307Q724 301 719 297Q714 293 708 294ZM518 294L492 294L492 269Q492 264 488.50 260Q485 256 479 256L473 256Q468 256 464 260Q460 264 460 269L460 294L435 294Q430 294 426 298Q422 302 422 307L422 313Q422 319 426 323Q430 327 435 327L461 327L461 351Q461 357 465 360.50Q469 364 474 364L480 364Q486 364 489.50 360Q493 356 493 351L493 327L519 327Q524 327 528 323Q532 319 532 313L532 307Q532 302 528 297.50Q524 293 518 294ZM494 447L475 447L475 429Q475 425 472 422Q469 419 465 418L461 418Q457 419 454 422Q451 425 451 429L451 447L432 447Q428 447 425 450Q422 453 422 457L422 462Q422 466 425 469Q428 472 432 472L451 472L451 489Q451 494 454 497Q457 500 461 500L465 500Q469 500 472 497Q475 494 475 489L475 471L494 471Q498 471 501 468Q504 465 504 461L504 456Q502 448 494 447Z"/></svg>