<svg xmlns="http://www.w3.org/2000/svg" viewBox="63 74 898 615"><path d="M957 381Q901 240 781.50 158Q662 76 511 74Q361 76 241.50 158Q122 240 66 381L512 594L417 640Q434 663 459 676Q484 689 513 689Q542 689 567 676Q592 663 609 640L512 594ZM304 494L512 594L721 494Q695 429 639 390.50Q583 352 512.50 352Q442 352 386 390.50Q330 429 304 494ZM405 619L947 360L961 389L419 648ZM667 413L648 397L535 533L575 360L552 354L512 527L471 354L447 360L488 533L375 397L357 413L468 547L77 360L63 389L604 648L618 618L530 577Z"/></svg>