<svg xmlns="http://www.w3.org/2000/svg" viewBox="167 38 690 691"><path d="M273 38L751 38Q796 39 826 69Q856 99 857 144L857 622Q856 667 826 696.50Q796 726 751 728L273 728Q228 726 198.50 696.50Q169 667 167 622L167 144Q168 99 198 69Q228 39 273 38ZM512 396L512 495Q538 484 562.50 494Q587 504 598.50 529.50Q610 555 600.50 579.50Q591 604 565.50 616Q540 628 513 616L513 728L273 728Q228 727 198.50 697Q169 667 167 622L167 383L305 383Q288 398 287 419.50Q286 441 300.50 457.50Q315 474 336.50 475.50Q358 477 374.50 462Q391 447 392.50 426Q394 405 379 388L375 383L512 383L512 342Q505 343 499 342Q460 341 436.50 311Q413 281 412.50 236Q412 191 431.50 160Q451 129 499 128L512 128L512 38L751 38Q796 39 825.50 69Q855 99 857 144L857 396L736 396Q751 377 750 354.50Q749 332 731.50 315.50Q714 299 691 300Q668 301 652 318Q636 335 636 356.50Q636 378 651 395L512 395ZM652 396L512 396L512 495L525 491Q553 486 576 500.50Q599 515 604.50 543Q610 571 594.50 593.50Q579 616 551 622Q545 623 538 623Q525 622 513 617L513 729L498 729L498 596L517 604Q538 613 557.50 605Q577 597 586 576Q595 555 587.50 535.50Q580 516 559 507Q538 498 517 506L498 515L498 397L400 397Q411 423 401 447.50Q391 472 365.50 483.50Q340 495 315.50 485.50Q291 476 279 450Q267 424 279 397L167 397L167 383L304 383Q288 398 286.50 419.50Q285 441 300 457.50Q315 474 336 475.50Q357 477 373.50 462Q390 447 391.50 426Q393 405 379 388L374 383L512 383L512 343L499 343Q460 342 436.50 312Q413 282 412.50 237Q412 192 431.50 160.50Q451 129 499 128L512 128L512 38L525 38L525 144L499 144Q462 144 443.50 168Q425 192 425 238Q426 279 446 304.50Q466 330 499 331Q504 332 510 331L525 329L525 383L628 383Q618 355 629.50 329.50Q641 304 669 293Q697 282 722.50 293.50Q748 305 759 333Q769 358 759 383L857 383L857 396L736 396Q752 378 751 355Q750 332 732 316Q714 300 691.50 301Q669 302 653 319Q637 336 637 357.50Q637 379 652 396ZM668 437L445 564Q427 574 408.50 569Q390 564 380 547Q374 536 374 523L374 263Q374 243 387.50 229.50Q401 216 421 216Q434 215 446 222L668 355Q685 366 689.50 384Q694 402 685 420Q678 430 668 437Z"/></svg>