<svg xmlns="http://www.w3.org/2000/svg" viewBox="200.1 -31 624.0578947368422 811"><path d="M691 1L691 58Q703 62 711 71Q719 80 721 92Q728 132 708 169L698 185Q689 200 684 209Q658 259 658 316L658 356L365 356L365 317Q365 260 340 210Q335 201 326 186L315 170Q296 134 302 93Q305 80 314.50 70.50Q324 61 337 58L337 1Q336-12 344-21Q352-30 364-31Q377-30 384.50-21Q392-12 392 1L392 74Q447 107 512 107Q579 107 637 72L637 1Q636-16 650-25Q664-34 678.50-25Q693-16 691 1ZM819 633L658 341L365 341L205 633Q198 646 201 658.50Q204 671 215 680Q351 780 512.50 780Q674 780 810 680Q821 671 823.50 658Q826 645 819 633ZM410 391Q406 389 402 390Q398 391 396 395L272 646Q269 654 276 659Q279 660 281 659Q287 659 290 654L414 403Q416 395 410 391ZM456 496Q452 495 448.50 497Q445 499 444 503L403 674Q402 683 411 687L413 687Q421 686 423 679L463 508Q464 499 456 496ZM751 645L627 394Q622 388 614.50 391.50Q607 395 610 404L734 655Q737 660 743 660Q745 661 748 660Q752 658 753 653.50Q754 649 751 645ZM620 675L580 503Q577 495 568 497Q559 499 560 508L601 679Q603 686 611 687L613 687Q622 684 620 675Z"/></svg>