<svg xmlns="http://www.w3.org/2000/svg" viewBox="141 -19 741 795"><path d="M873 183Q839 147 798 133Q757 119 712 143Q720 98 706.50 55.50Q693 13 661-19Q653-16 627.50 48.50Q602 113 646 201Q627 221 609 240Q592 263 610 281.50Q628 300 650 282L719 212Q749 183 777 189.50Q805 196 832 225Q855 242 873 224Q891 206 873 183ZM705 206Q678 178 643 163.50Q608 149 569.50 149Q531 149 496 163.50Q461 178 434.50 205.50Q408 233 393 268Q342 268 296.50 287.50Q251 307 215 343Q141 421 141 522.50Q141 624 215 702Q251 738 296.50 757Q342 776 392.50 776Q443 776 489 757Q535 738 570.50 702Q606 666 624.50 620Q643 574 644 523Q678 508 705 481Q762 421 762 343.50Q762 266 705 206ZM514 670Q487 696 452.50 710Q418 724 380 723Q342 722 307.50 707Q273 692 247 665Q193 604 194.50 528Q196 452 252 393Q247 398 241 465.50Q235 533 296 608Q338 654 396 670.50Q454 687 514 670Z"/></svg>