<svg xmlns="http://www.w3.org/2000/svg" viewBox="0 -107 1023.2857142857141 983.4545454545455"><path d="M512 534.45Q448 533.45 406 491.45Q364 449.45 363 385.45Q364 321.45 406 279.45Q448 237.45 512 236.45Q576 237.45 618 279.45Q660 321.45 661 385.45Q660 449.45 618 491.45Q576 533.45 512 534.45ZM1009 257.45Q1004 239.45 990 228.45Q976 217.45 958 219.45Q933 220.45 912 208.95Q891 197.45 878.50 176.45Q866 155.45 867 130.95Q868 106.45 881 84.45Q891 68.45 889 50.95Q887 33.45 875 20.45Q828-24.55 771.50-56.05Q715-87.55 653-105.55Q635-109.55 618.50-102.55Q602-95.55 593-79.55Q581-57.55 561-45.05Q541-32.55 516.50-32.55Q492-32.55 471.50-45.55Q451-58.55 439-79.55Q431-95.55 414.50-102.55Q398-109.55 380-105.55Q314-85.55 256-53.05Q198-20.55 151 22.45Q139 36.45 137 53.95Q135 71.45 145 86.45Q158 107.45 159 131.45Q160 155.45 147 177.45Q134 199.45 113.50 210.95Q93 222.45 68 221.45Q49 220.45 34.50 230.95Q20 241.45 15 259.45Q-1 321.45 0 383.45Q1 450.45 17 513.45Q22 531.45 36.50 541.45Q51 551.45 70 551.45Q95 550.45 116.50 561.95Q138 573.45 151 593.95Q164 614.45 163 638.45Q162 662.45 149 684.45Q140 700.45 141.50 717.45Q143 734.45 156 748.45Q202 793.45 258.50 824.95Q315 856.45 378 874.45Q384 876.45 390 876.45Q405 876.45 417 868.95Q429 861.45 435 848.45Q447 825.45 467.50 813.45Q488 801.45 512 801.45Q536 801.45 556.50 814.45Q577 827.45 589 848.45Q597 864.45 613.50 871.45Q630 878.45 649 874.45Q711 856.45 767.50 823.95Q824 791.45 870 748.45Q883 734.45 884.50 716.95Q886 699.45 877 684.45Q864 663.45 863 639.45Q862 615.45 875 593.45Q888 571.45 908.50 559.95Q929 548.45 954 549.45Q972 550.45 986.50 539.95Q1001 529.45 1005 511.45Q1013 480.45 1017.50 448.45Q1022 416.45 1022 385.45Q1025 353.45 1021 320.95Q1017 288.45 1009 257.45Z"/></svg>