<svg xmlns="http://www.w3.org/2000/svg" viewBox="0 -128 1024 1023"><path d="M576-65Q575-93 557.50-110.50Q540-128 512-128Q484-128 466.50-110.50Q449-93 448-65L448 42L576 42ZM811 42L576 42L576 509L642 443Q661 425 686 425Q711 425 729 443Q747 461 747 486.50Q747 512 730 530L570 690Q566 698 559 705Q539 724 512.50 724Q486 724 467 707Q460 701 457 692L297 532Q279 514 279 489Q279 464 297 445.50Q315 427 340 427Q365 427 384 445L450 511L450 42L213 42Q123 44 62.50 104.50Q2 165 0 255L0 682Q2 772 62.50 832.50Q123 893 213 895L811 895Q901 893 961.50 832.50Q1022 772 1024 682L1024 255Q1022 165 961.50 104.50Q901 44 811 42Z"/></svg>