<svg xmlns="http://www.w3.org/2000/svg" viewBox="238.09677419354838 -22.07142857142857 545.9032258064516 811.3380911690848"><path d="M290 530.20Q273 530.20 257 517.20Q241 504.20 238.50 484.20Q236 464.20 249 446.20Q271 417.20 271 382.20Q271 347.20 249 318.20Q236 301.20 238.50 280.70Q241 260.20 258 247.20Q275 234.20 295.50 236.20Q316 238.20 329 255.20Q374 312.20 374 382.70Q374 453.20 329 511.20Q323 520.20 312.50 525.20Q302 530.20 290 530.20ZM449 659.20Q431 660.20 415.50 647.20Q400 634.20 398 613.70Q396 593.20 410 576.20Q477 488.20 477 382.20Q477 276.20 410 190.20Q397 173.20 399 152.70Q401 132.20 417.50 119.20Q434 106.20 454.50 108.20Q475 110.20 488 125.20Q579 241.20 579 382.70Q579 524.20 488 641.20Q481 650.20 471 654.70Q461 659.20 449 659.20ZM608 789.20Q590 790.20 574 777.20Q558 764.20 556 743.70Q554 723.20 568 706.20Q682 561.20 682 384.20Q682 207.20 568 60.20Q556 43.20 558 22.70Q560 2.20 576.50-10.80Q593-23.80 613-21.80Q633-19.80 647-3.80Q784 170.20 784 382.70Q784 595.20 647 769.20Q640 779.20 629.50 784.20Q619 789.20 608 789.20Z"/></svg>