<svg xmlns="http://www.w3.org/2000/svg" viewBox="0 -128 1024 1025"><path d="M619 108L896 108Q950 109 986.50 144Q1023 179 1024 234L1024 238Q1023 292 986.50 327Q950 362 896 364L619 364ZM405 726Q405 730 405 726Q409 751 429 757.50Q449 764 465 746L512 684L559 746Q575 764 595 758Q615 752 619 728L619 449L939 449L939 684Q936 774 876 834.50Q816 895 725 897L299 897Q208 895 148 835Q88 775 85 684L85 449L405 449ZM128 108L405 108L405 364L128 364Q74 362 37.50 327Q1 292 0 238L0 236Q1 181 37.50 145Q74 109 128 108ZM241-97Q271-126 310-126Q349-126 378-97L499 22L228 22Q211-6 214-39Q217-72 241-97ZM794 22L523 22L644-99Q675-128 713.50-128Q752-128 781-99Q805-74 808-40.50Q811-7 794 22Z"/></svg>