<svg xmlns="http://www.w3.org/2000/svg" viewBox="65 -64 894 895"><path d="M896 63L576 63L576-1Q575-29 557.50-46.50Q540-64 512-64Q484-64 466.50-46.50Q449-29 448-1L448 63L128 63Q100 64 82.50 81.50Q65 99 65 127Q65 155 82.50 172.50Q100 190 128 191L896 191Q924 190 941.50 172.50Q959 155 959 127Q959 99 941.50 81.50Q924 64 896 63ZM469 596L469 298Q469 270 451 252Q433 234 405.50 234Q378 234 360 252Q342 270 341 298L341 596Q342 624 360 642Q378 660 405.50 660Q433 660 451 642Q469 624 469 596ZM811 234Q783 234 765 252Q747 270 747 298L747 703L277 703L277 298Q277 270 259 252Q241 234 213.50 234Q186 234 168 252Q150 270 149 298L149 767Q150 795 168 812.50Q186 830 213 831L811 831Q838 830 856 812.50Q874 795 875 767L875 298Q874 270 856 252Q838 234 811 234ZM683 596L683 298Q682 270 664 252Q646 234 618.50 234Q591 234 573 252Q555 270 555 298L555 596Q555 624 573 642Q591 660 618.50 660Q646 660 664 642Q682 624 683 596Z"/></svg>