<svg xmlns="http://www.w3.org/2000/svg" viewBox="0 -107.92079207920793 1024.008733624454 982.9207920792079"><path d="M683 411.08Q634 410.08 602.50 377.58Q571 345.08 570 296.08Q571 246.08 603 214.08Q635 182.08 683 180.08Q731 182.08 763 214.08Q795 246.08 796 296.08Q795 345.08 763 377.58Q731 410.08 683 411.08ZM342 411.08Q293 410.08 261.50 377.58Q230 345.08 229 296.08Q230 246.08 262 214.08Q294 182.08 342 180.08Q391 182.08 422.50 214.08Q454 246.08 455 296.08Q453 345.08 421 377.58Q389 410.08 342 411.08ZM625-107.92L416-107.92Q248-103.92 129.50 5.08Q11 114.08 0 283.08Q-2 378.08 33.50 459.08Q69 540.08 133 598.08Q180 639.08 195.50 673.58Q211 708.08 188 765.08L184 776.08Q168 826.08 202 856.58Q236 887.08 284 867.08L568 731.08Q570 729.08 596 717.58Q622 706.08 645 701.08Q801 685.08 909 577.58Q1017 470.08 1024 308.08Q1025 133.08 911.50 15.08Q798-102.92 625-107.92Z"/></svg>