<svg xmlns="http://www.w3.org/2000/svg" viewBox="37.09375 27.67924528301887 949.0949292452832 712.5543313593168"><path d="M472 329.91L412 329.91L412 269.91Q412 254.91 402 244.91Q392 234.91 377 234.91Q362 234.91 352 244.91Q342 254.91 341 269.91L341 329.91L282 329.91Q266 329.91 256 339.91Q246 349.91 246 365.41Q246 380.91 256 390.91Q266 400.91 282 400.91L341 400.91L341 460.91Q342 475.91 352 485.91Q362 495.91 377 495.91Q392 495.91 402 485.91Q412 475.91 412 460.91L412 400.91L472 400.91Q487 400.91 497 390.91Q507 380.91 507 365.41Q507 349.91 497 339.91Q487 329.91 472 329.91ZM956 340.91Q896 152.91 818 88.41Q740 23.91 671 27.91Q643 28.91 621.50 37.91Q600 46.91 582 57.91Q566 67.91 551 74.41Q536 80.91 515.50 80.91Q495 80.91 477.50 73.91Q460 66.91 441.50 56.91Q423 46.91 401 37.91Q379 28.91 351 27.91Q234 34.91 166 131.41Q98 227.91 67 340.91Q27 478.91 40.50 578.41Q54 677.91 119 720.91Q176 752.91 245 731.91Q314 710.91 385 672.91L391 669.91Q406 661.91 440 647.91Q474 633.91 512 632.91Q549 633.91 581 646.91Q613 659.91 630 667.91L639 672.91Q689 697.91 739.50 717.91Q790 737.91 836 739.91Q873 739.91 906 720.91Q970 677.91 983 578.41Q996 478.91 956 340.91ZM866 659.91Q838 676.91 787 659.41Q736 641.91 668 608.91L663 605.91Q643 594.91 603 578.91Q563 562.91 512 561.91L511 561.91Q461 562.91 419.50 579.41Q378 595.91 358 606.91L356 608.91Q288 642.91 237 659.91Q186 676.91 158 659.91Q115 631.91 109.50 551.41Q104 470.91 137 359.91Q163 265.91 215 185.41Q267 104.91 351 99.91Q365 99.91 378.50 105.41Q392 110.91 408 118.91Q428 130.91 454.50 140.91Q481 150.91 515.50 150.91Q550 150.91 574.50 140.91Q599 130.91 617 118.91Q632 110.91 644.50 105.41Q657 99.91 671 99.91Q756 104.91 808.50 185.41Q861 265.91 887 360.91Q920 472.91 914.50 552.41Q909 631.91 866 659.91ZM633 419.91ZM583 419.91Q584 440.91 598 454.91Q612 468.91 633 468.91Q654 468.91 668 454.91Q682 440.91 682 419.41Q682 397.91 668 383.91Q654 369.91 633 369.91Q612 369.91 598 383.91Q584 397.91 583 419.91ZM740 312.91ZM690 312.91Q690 325.91 696.50 337.41Q703 348.91 714.50 355.91Q726 362.91 739.50 362.91Q753 362.91 764.50 355.91Q776 348.91 782.50 337.41Q789 325.91 789 312.41Q789 298.91 782.50 287.91Q776 276.91 764.50 269.91Q753 262.91 739.50 262.91Q726 262.91 714.50 269.91Q703 276.91 696.50 287.91Q690 298.91 690 312.91Z"/></svg>