<svg xmlns="http://www.w3.org/2000/svg" viewBox="0 -77 1024 910"><path d="M49 579L49 543Q28 534 14 515.50Q0 497 0 472L0 372Q0 348 14 329Q28 310 49 302L49 250Q51 154 116 89.50Q181 25 279 22L742 22Q841 25 905.50 89.50Q970 154 973 250L973 302Q996 310 1010 329Q1024 348 1024 372L1024 472Q1023 504 1002 525Q981 546 949 547L911 547Q895 547 884 536Q873 525 873 509L873 334Q873 321 880 311.50Q887 302 898 297L898 248Q896 183 852 139.50Q808 96 742 95L279 95Q214 96 169.50 139.50Q125 183 124 248L124 297Q135 302 142 312Q149 322 149 334L149 509Q149 521 142 530.50Q135 540 124 545L124 581Q125 647 169.50 690Q214 733 279 735L531 735Q538 723 549.50 716Q561 709 574 709L636 709Q657 710 670.50 723.50Q684 737 685 758L685 784Q684 805 670.50 818.50Q657 832 636 833L574 833Q559 833 548.50 826Q538 819 531 807L279 807Q181 805 116 740.50Q51 676 49 579ZM288 135L738 135Q791 136 827 171.50Q863 207 864 261L864 560Q863 612 827.50 648Q792 684 738 686L288 686Q235 684 199.50 649Q164 614 162 560L162 261Q163 207 198.50 171.50Q234 136 288 135ZM363 323Q336 324 318.50 341.50Q301 359 301 385L301 434Q301 460 318.50 477.50Q336 495 362.50 495Q389 495 406.50 477.50Q424 460 425 434L425 385Q424 359 406.50 341.50Q389 324 363 323ZM661 323Q635 324 617.50 341.50Q600 359 599 385L599 434Q600 460 617.50 477.50Q635 495 661.50 495Q688 495 705.50 477.50Q723 460 723 434L723 385Q724 359 706 341.50Q688 324 661 323ZM437-3L288-3Q289-35 310-56Q331-77 362.50-77Q394-77 415-56Q436-35 437-3ZM736-3L587-3Q588-35 609-56Q630-77 661.50-77Q693-77 714-56Q735-35 736-3Z"/></svg>