<svg xmlns="http://www.w3.org/2000/svg" viewBox="28 -111.15384615384616 987.8205128205127 981.1538461538462"><path d="M237-111.15L638-111.15Q725-109.15 781.50-51.65Q838 5.85 841 90.85L841 265.85Q841 294.85 821 316.85L439 767.85Q428 779.85 412.50 787.35Q397 794.85 380 794.85L222 794.85Q140 792.85 85 737.85Q30 682.85 28 600.85L28 99.85Q28 9.85 87.50-49.65Q147-109.15 237-111.15ZM591 99.85L275 99.85Q247 100.85 228.50 119.35Q210 137.85 210 165.85Q210 193.85 228.50 212.35Q247 230.85 275 231.85L591 231.85Q619 230.85 637.50 212.35Q656 193.85 656 165.85Q656 137.85 637.50 119.35Q619 100.85 591 99.85ZM459 361.85L275 361.85Q247 362.85 228.50 381.35Q210 399.85 210 427.85Q210 455.85 228.50 474.85Q247 493.85 275 493.85L459 493.85Q487 493.85 505.50 474.85Q524 455.85 524 427.85Q524 399.85 505.50 381.35Q487 362.85 459 361.85ZM823 470.85L905 538.85Q913 545.85 914 556.35Q915 566.85 909 575.85L683 841.85Q670 858.85 651 858.85L580 869.85Q569 870.85 560.50 865.35Q552 859.85 550 848.85L550 773.85Q550 753.85 563 739.85L787 472.85Q794 464.85 804.50 463.85Q815 462.85 823 470.85ZM973 353.85L992 370.85Q1013 388.85 1015.50 414.85Q1018 440.85 1001 461.85L975 491.85Q968 499.85 957.50 501.35Q947 502.85 939 496.85L858 427.85Q850 420.85 848.50 410.85Q847 400.85 853 391.85L879 361.85Q898 340.85 924.50 339.35Q951 337.85 973 353.85Z"/></svg>