<svg xmlns="http://www.w3.org/2000/svg" viewBox="0 -128 1024 1023"><path d="M277 127Q250 126 232 108.50Q214 91 213 63L213-65Q214-93 232-110.50Q250-128 277.50-128Q305-128 323-110.50Q341-93 341-65L341 63Q341 91 323 108.50Q305 126 277 127ZM747 127Q719 126 701 108.50Q683 91 683 63L683-65Q683-93 701-110.50Q719-128 746.50-128Q774-128 792-110.50Q810-93 811-65L811 63Q810 91 792 108.50Q774 126 747 127ZM706 336Q688 320 663.50 320Q639 320 621 336L463 483L397 421Q378 405 355.50 405Q333 405 315.50 421.50Q298 438 298 459.50Q298 481 316 498L416 592Q419 598 425 601Q443 617 467 617Q491 617 510 601L708 415Q724 398 724 375.50Q724 353 706 336ZM811 895L213 895Q123 893 62.50 832.50Q2 772 0 682L0 212Q1 139 42 84.50Q83 30 149 10L149 84Q151 139 187 175Q223 211 277 212Q332 211 368 175Q404 139 405 84L405-1L619-1L619 84Q620 139 656 175Q692 211 747 212Q801 211 837 175Q873 139 875 84L875 10Q941 32 982 86.50Q1023 141 1024 212L1024 682Q1022 772 961.50 832.50Q901 893 811 895Z"/></svg>