<svg xmlns="http://www.w3.org/2000/svg" viewBox="154 -85 716 938"><path d="M358 683L358 597Q266 552 210.50 467Q155 382 154 273Q157 121 258.50 20Q360-81 512-85Q664-81 765.50 20Q867 121 870 273Q869 382 813.50 467Q758 552 666 597L666 683Q665 705 651 719Q637 733 614 734L410 734Q387 733 373 719Q359 705 358 683ZM452 768L572 768Q590 768 602 780Q614 792 614 810.50Q614 829 602 841Q590 853 572 853L452 853Q434 853 422 841Q410 829 410 810.50Q410 792 422 780Q434 768 452 768ZM777 273Q776 195 736.50 132.50Q697 70 628 36Q612 28 596 33.50Q580 39 572 55Q564 71 569.50 87Q575 103 591 111Q637 135 664 177Q691 219 691 271Q692 290 704 302Q716 314 734 314Q752 314 764 302.50Q776 291 777 273ZM563 597L461 597Q446 598 436.50 607.50Q427 617 427 631.50Q427 646 436.50 655.50Q446 665 461 666L563 666Q578 665 587.50 655.50Q597 646 597 631.50Q597 617 587.50 607.50Q578 598 563 597Z"/></svg>