<svg xmlns="http://www.w3.org/2000/svg" viewBox="102 -26 820 820"><path d="M418 404Q415 407 411 406L404 406ZM418 404Q419 404 418 404ZM386 474Q384 475 382 476Q387 477 386 474ZM481 539L480 538L481 536ZM785 145L239 145Q181 147 142.50 185.50Q104 224 102 282Q103 326 126.50 359Q150 392 188 408L188 657Q189 715 227.50 753.50Q266 792 324 794L700 794Q758 792 796.50 753.50Q835 715 836 657L836 408Q874 392 897.50 358.50Q921 325 922 282Q920 224 881.50 185.50Q843 147 785 145ZM785 316Q763 316 748.50 330.50Q734 345 734 367L734 657Q733 672 723.50 681.50Q714 691 700 691L324 691Q310 691 300.50 681.50Q291 672 290 657L290 367Q290 345 275.50 330.50Q261 316 239 316Q224 315 214.50 305.50Q205 296 205 281.50Q205 267 214.50 257.50Q224 248 239 247L785 247Q800 248 809.50 257.50Q819 267 819 281.50Q819 296 809.50 305.50Q800 315 785 316ZM265 145L386 145L329 89Q326 86 325 82.50Q324 79 324 76.50Q324 74 325 71Q326 68 329 65Q335 60 341.50 60Q348 60 353 65L433 145L591 145L671 65Q676 60 682.50 60Q689 60 695 65Q698 68 699 71Q700 74 700 76.50Q700 79 699 82.50Q698 86 695 89L638 145L758 145Q783 116 783 77Q783 35 752.50 5.50Q722-24 681-24Q640-24 608 5L512 102L413 3Q382-26 341-26Q300-26 268 3Q239 35 239 77Q239 116 265 145ZM512 468L509 468L509 469L507 473L507 469L509 466L510 464L519 463L521 461L532 459Q533 458 534 457Q535 456 532 456L534 456Q538 456 535.50 455Q533 454 527 454L527 452Q532 453 538 451L536 454Q538 452 541 452Q539 453 539 451L541 451Q539 451 539 449Q545 449 545.50 448Q546 447 550 447L551 446L556 445Q557 446 558.50 445Q560 444 562 444.50Q564 445 563 445L567 445L570 447Q571 448 572 445Q570 442 568 442L572 442Q570 443 573 444L575 444L575 445L589 445Q594 442 599 440L599 437Q600 436 601 439L606 435Q606 437 609 437L614 437Q615 436 618 435Q619 438 620.50 438.50Q622 439 621 437L625 437Q622 436 625 435L628 435L630 433Q631 434 630 434L630 435L631 435Q633 436 633 437L635 437L635 435L637 437L642 439Q641 440 643 442L643 437Q644 436 645.50 436.50Q647 437 648 438.50Q649 440 649 439L649 442L650 442L650 437L652 440Q653 442 654 444L657 447Q658 447 658.50 443.50Q659 440 660 440L662 449L662 447Q662 448 663 446L664 444L666 445L667 449L669 447L669 445Q667 442 671 442L671 445Q672 445 676 442Q680 439 681 437L684 437L686 435Q688 435 693 425Q698 415 693 393Q694 391 693 390.50Q692 390 693 389L693 387L691 387Q689 387 689 386L691 384Q692 384 691 381L691 379L689 379L689 375Q690 375 688 373.50Q686 372 686.50 370Q687 368 684 369L683 369L684 370L683 370L681 375L681 374Q681 372 678 372L676 372L678 370L678 369Q677 366 679 369Q679 364 681 364L681 369L683 365L684 365Q685 364 686 365Q687 364 687 364L686 362Q685 360 684 360L683 362L683 360Q684 357 683 357Q684 354 684 353Q683 352 682 352Q681 352 681 350L679 352L679 348L678 346L676 348L666 355Q664 356 663 356Q662 356 662 357Q659 358 659 362Q658 360 657 360L655 364L654 369L654 365L652 365Q653 365 653 364L652 364L652 357L650 357L649 360L647 360Q645 361 645.50 362.50Q646 364 643 364L642 364Q640 362 640 360.50Q640 359 638 358L637 357Q634 358 634.50 357Q635 356 633 355L631 357Q629 357 630 355Q628 356 628 357L625 357Q623 355 621 355L620 353Q617 351 616 353Q615 355 614 355Q615 357 613 357L613 355L611 354Q610 354 609 355L609 353Q610 352 608 352Q606 352 604 354L602 357Q599 356 599 355L596 355Q593 356 594 357Q591 356 589 357.50Q587 359 591 360L592 358L594 360Q591 361 590.50 362Q590 363 589 362L587 362L585 362Q585 361 582 364Q580 363 580 365L579 367L575 367L575 364L573 367Q573 369 572.50 368Q572 367 570 367L570 369L567 369Q566 369 565 372L563 372L565 375L570 375L567 377L563 380Q561 382 559 382.50Q557 383 554.50 383Q552 383 550 384Q550 386 548 386L546 386L546 387Q546 388 543 389Q542 390 539 389L536 391L536 384L538 384L538 382Q540 383 539 381L538 381L536 379L541 372L539 370L541 369L543 365L541 364L541 360L543 358L543 353L544 348L543 348L543 338L541 335L539 335L541 333L539 329L539 328L538 326L538 324L536 323L536 321L534 321L532 319L531 316L529 316L527 312L526 311L524 312L522 309L519 305L517 302L512 299L512 294L509 292L507 290L505 290L503 288L498 285L490 285L486 283L485 282L480 282L480 283L478 283L474 282L473 282L471 283L469 282L457 282L457 283L454 283L452 285L451 285L449 287L447 287L447 290L445 292L445 295L447 297L449 300L451 300L451 302L449 304L454 305L452 309L454 311L456 316L456 321L461 323L461 326L459 329L461 331L461 333L463 335L464 348L466 352L466 360L468 367L466 370L466 377L464 379L464 384L466 382L464 386L464 387L466 387L466 384L468 384L468 387L466 389L466 391L468 391L464 394L464 398L461 398Q460 398 459 396L459 401L451 401L451 399Q448 399 447 401L444 401Q438 401 425 404L422 404Q413 406 410 408L397 411Q392 413 384 413L370 415L381 411Q373 412 364 415L364 416L355 416L355 415Q352 417 350 416Q350 416 352.50 415.50Q355 415 357 413L360 410L358 410Q356 409 353.50 411Q351 413 348 411L346 411Q342 413 338.50 413Q335 413 334.50 410Q334 407 333 408Q329 411 329 416L331 423L331 430Q330 432 330 434L329 439L331 439Q331 444 333 447L335 454Q336 458 338 459L340 464Q341 464 343 466.50Q345 469 345 471Q348 475 348 476Q349 481 353 483L356 484Q359 485 360 486Q361 484 362 485Q364 483 367 483L372 483Q374 483 375 480L377 480Q376 480 376.50 480.50Q377 481 379 479Q381 477 386 478Q388 475 391 478Q390 478 397 477Q404 476 411 476Q409 478 406 478L401 480L408 480Q413 479 416 476Q419 473 421.50 472.50Q424 472 423 471.50Q422 471 425 470.50Q428 470 430.50 467.50Q433 465 437 466Q441 464 445 464L445 466L447 468L447 466L449 466L444 466L444 468L442 469L442 471L451 473L444 480L444 483L442 485L442 483L440 485L440 486L439 486L437 490L437 492L435 493L437 493L406 544L406 543L403 546L401 550L401 551L399 556L396 555L396 556L393 560L393 558L393 563L391 567L389 567L389 565L387 565L387 567L386 568L384 572L381 573L379 577L375 580L372 585L372 589L362 601L358 602L357 602L355 604L353 604L353 608L352 609L352 608L350 608L350 609L341 614L340 614L338 618L335 618L333 620L331 620L328 621L326 621L326 623L324 626L324 628L326 631L326 633L329 635L328 635L331 638L336 640L340 642L340 645L345 647L350 654L358 657L360 657L367 659L384 659L386 657L391 657L394 655L399 655L401 654L403 654L404 652L406 652L404 654L408 654L410 652L411 652L415 650L422 649L423 649L423 645L427 645L428 643L430 643L432 642L435 642L427 640L427 638L428 638L432 637L435 633L440 623L444 621L444 620L445 616L444 614L447 613L447 604L454 601L456 599L456 597L454 597L456 596L456 594L459 591L459 589L464 579L464 577L466 575L464 575L464 572L466 568L468 567L468 565L469 561L469 556L471 558L473 556L473 553L476 553L476 555L474 555L476 551L478 550L478 548L474 551L474 553L473 553L473 550L474 548L474 546L476 543L478 541L478 539L480 538L480 539L478 538L478 529L483 524L483 526L485 526L485 527L486 526L488 526L490 527L490 531L493 527L492 526L492 522L495 521L493 517L495 517L492 515L492 512L490 512L490 509L493 507L493 503L497 492L498 490L498 493L500 493L502 492L503 493L503 495L502 498L500 498L500 503L498 505L495 505L493 507L493 509L497 509L497 512L495 517L495 526L502 524L503 524L502 522L503 519L503 517L502 515L505 512L505 509L503 507L503 505L502 503L502 500L503 502L505 502L505 498L507 493L507 492L514 478L512 480L510 478L512 478L514 474L515 473L515 471ZM695 567L691 561L689 558L689 556L688 556L686 553L683 551L681 551L681 550L679 548L672 548L671 546L671 544L669 543L667 543L667 541L666 539L664 539L662 538L662 536L660 536L659 534L654 534L654 532L650 532L650 531L649 531L649 529L643 529L643 527L633 527L633 526L631 526L630 524L628 524L628 526L626 526L616 517L613 514L611 514L608 512L608 510L602 507L601 507L599 505L597 505L594 503L591 503L591 505L589 505L585 503L582 503L582 502L580 500L579 500L577 498L573 498L572 497L572 498L570 498L570 497L572 497L570 495L568 495L567 497L567 495L563 495L561 493L560 493L560 495L561 495L561 497L563 497L563 498L561 498L563 500L563 502L561 502L561 503L560 503L560 507L556 507L556 505L551 505L551 503L551 505L544 505L544 503L543 503L543 507L538 507L536 509L532 509L532 507L531 507L531 505L517 505L519 505L519 507L521 509L524 509L534 517L532 517L532 519L534 521L536 521L541 526L539 526L539 527L538 527L538 526L532 526L536 529L538 529L546 538L548 538L550 539L550 543L551 544L551 546L553 546L555 548L556 548L558 551L560 551L575 567L575 568L577 572L579 572L579 570L580 572L582 572L582 573L618 602L618 604L621 604L621 606L623 606L626 609L626 611L628 611L640 623L642 623L643 625L643 626L650 626L650 630L652 631L652 633L655 633L657 635L660 635L662 637L667 637L667 640L669 643L671 645L671 650L671 647L671 652L672 649L674 649L676 647L678 647L678 643L679 643L679 642L681 642L681 637L684 637L686 633L689 633L689 631L691 630L691 628L693 626L693 621L696 608L700 608L700 602L695 570ZM394 408Q390 410 386 410Q394 410 394 408ZM326 637L326 635L328 635ZM539 379Q541 379 539 379Z"/></svg>