<svg xmlns="http://www.w3.org/2000/svg" viewBox="0 -128 1024 1024"><path d="M811 427Q775 428 750.50 452Q726 476 726 512Q726 548 750.50 572Q775 596 811 596Q847 596 871 572Q895 548 895 512Q895 476 871 452Q847 428 811 427ZM747 0L277 0Q213 2 171.50 43.50Q130 85 128 149Q130 213 171.50 255Q213 297 277 299L747 299Q811 297 852.50 255Q894 213 896 149Q894 85 852.50 43.50Q811 2 747 0ZM192 661L235 661L235 704Q235 732 253 749.50Q271 767 298.50 767Q326 767 344 749.50Q362 732 363 704L363 661L405 661Q433 661 451 643Q469 625 469 597.50Q469 570 451 552Q433 534 405 533L363 533L363 491Q362 463 344 445Q326 427 298.50 427Q271 427 253 445Q235 463 235 491L235 533L192 533Q164 534 146.50 552Q129 570 129 597.50Q129 625 146.50 643Q164 661 192 661ZM661 768Q697 767 721.50 743Q746 719 746 683Q746 647 721.50 622.50Q697 598 661 598Q625 598 601 622.50Q577 647 577 683Q577 719 601 743Q625 767 661 768ZM811 896L213 896Q123 894 62.50 833.50Q2 773 0 683L0 85Q2-5 62.50-65.50Q123-126 213-128L811-128Q901-126 961.50-65.50Q1022-5 1024 85L1024 683Q1022 773 961.50 833.50Q901 894 811 896Z"/></svg>