<svg xmlns="http://www.w3.org/2000/svg" viewBox="149 21 726 726"><path d="M270 21L754 21Q805 23 839 57Q873 91 875 142L875 626Q873 677 839 711Q805 745 754 747L270 747Q219 745 185 711Q151 677 149 626L149 142Q151 91 185 57Q219 23 270 21ZM754 92L270 92Q249 93 235 107Q221 121 220 142L220 626Q221 647 235 661Q249 675 270 676L754 676Q775 675 789 661Q803 647 804 626L804 142Q803 121 789 107Q775 93 754 92ZM356 206L299 206Q283 206 273 196Q263 186 263 170.50Q263 155 273 145Q283 135 299 135L356 135Q371 135 381 145Q391 155 391 170.50Q391 186 381 196Q371 206 356 206ZM356 633L299 633Q283 633 273 623Q263 613 263 597.50Q263 582 273 572Q283 562 299 562L356 562Q371 562 381 572Q391 582 391 597.50Q391 613 381 623Q371 633 356 633ZM540 206L484 206Q468 206 458 196Q448 186 448 170.50Q448 155 458 145Q468 135 484 135L540 135Q556 135 566 145Q576 155 576 170.50Q576 186 566 196Q556 206 540 206ZM540 633L484 633Q468 633 458 623Q448 613 448 597.50Q448 582 458 572Q468 562 484 562L540 562Q556 562 566 572Q576 582 576 597.50Q576 613 566 623Q556 633 540 633ZM725 206L668 206Q653 206 643 196Q633 186 633 170.50Q633 155 643 145Q653 135 668 135L725 135Q741 135 751 145Q761 155 761 170.50Q761 186 751 196Q741 206 725 206ZM725 633L668 633Q653 633 643 623Q633 613 633 597.50Q633 582 643 572Q653 562 668 562L725 562Q741 562 751 572Q761 582 761 597.50Q761 613 751 623Q741 633 725 633ZM617 420L508 495Q492 504 475.50 501.50Q459 499 448 484Q441 473 441 459L441 309Q441 290 453 278Q465 266 484 266Q497 266 508 273L617 348Q632 359 635 376Q638 393 629 408Q624 415 617 420Z"/></svg>