<svg xmlns="http://www.w3.org/2000/svg" viewBox="113 -15 800 800"><path d="M372 429L210 429Q168 430 141 457.50Q114 485 113 526L113 688Q114 729 141.50 756.50Q169 784 210 785L372 785Q413 784 440.50 756.50Q468 729 469 688L469 526Q468 485 440.50 457.50Q413 430 372 429ZM375 557L375 659Q375 674 365.50 683.50Q356 693 341 693L239 693Q224 693 214.50 683.50Q205 674 205 659L205 557Q205 542 214.50 532.50Q224 523 239 523L341 523Q356 523 365.50 532.50Q375 542 375 557ZM372-15L210-15Q168-14 141 13.50Q114 41 113 82L113 244Q114 285 141.50 313Q169 341 210 342L372 342Q413 341 440.50 313Q468 285 469 244L469 82Q468 41 440.50 13.50Q413-14 372-15ZM375 113L375 215Q375 230 365.50 239.50Q356 249 341 249L239 249Q224 249 214.50 239.50Q205 230 205 215L205 113Q205 98 214.50 88.50Q224 79 239 79L341 79Q356 79 365.50 88.50Q375 98 375 113ZM816 429L654 429Q613 430 585 457.50Q557 485 556 526L556 688Q557 729 585 756.50Q613 784 654 785L816 785Q857 784 884.50 756.50Q912 729 913 688L913 526Q912 485 884.50 457.50Q857 430 816 429ZM819 557L819 659Q819 674 809.50 683.50Q800 693 785 693L683 693Q668 693 658.50 683.50Q649 674 649 659L649 557Q649 542 658.50 532.50Q668 523 683 523L785 523Q800 523 809.50 532.50Q819 542 819 557ZM816-15L654-15Q613-14 585 13.50Q557 41 556 82L556 244Q557 285 585 313Q613 341 654 342L816 342Q857 341 884.50 313Q912 285 913 244L913 82Q912 41 884.50 13.50Q857-14 816-15ZM819 113L819 215Q819 230 809.50 239.50Q800 249 785 249L683 249Q668 249 658.50 239.50Q649 230 649 215L649 113Q649 98 658.50 88.50Q668 79 683 79L785 79Q800 79 809.50 88.50Q819 98 819 113Z"/></svg>