<svg xmlns="http://www.w3.org/2000/svg" viewBox="85 -43 854 854"><path d="M512-43Q331-38 210.50 82.50Q90 203 85 384Q90 565 210.50 685.50Q331 806 512 811Q693 806 813.50 685.50Q934 565 939 384Q934 203 813.50 82.50Q693-38 512-43ZM669 493Q679 504 679 517Q679 530 668.50 540.50Q658 551 645 551Q632 551 621 541L512 432L403 541Q392 551 379 551Q366 551 355.50 540.50Q345 530 345 517Q345 504 355 493L464 384L355 275Q345 264 345 251Q345 238 355.50 227.50Q366 217 379 217Q392 217 403 227L512 336L621 227Q631 217 644.50 217Q658 217 668.50 227.50Q679 238 679 251Q679 264 669 275L560 384Z"/></svg>