<svg xmlns="http://www.w3.org/2000/svg" viewBox="441.7199999999999 43 138.2800000000001 682.3333282470703"><path d="M538 594.33Q518 586.33 498 590.33Q478 594.33 462.50 609.83Q447 625.33 443 645.33Q439 665.33 447.50 684.33Q456 703.33 473.50 714.33Q491 725.33 512 725.33Q541 725.33 560.50 705.83Q580 686.33 580 657.33Q580 636.33 568.50 619.33Q557 602.33 538 594.33ZM538 321.33Q518 313.33 498 317.33Q478 321.33 462.50 336.83Q447 352.33 443 372.33Q439 392.33 447.50 411.33Q456 430.33 473.50 441.33Q491 452.33 512 452.33Q541 452.33 560.50 432.83Q580 413.33 580 384.33Q580 363.33 568.50 346.33Q557 329.33 538 321.33ZM512 179.33Q541 178.33 560.50 159.33Q580 140.33 580 111.33Q580 90.33 568.50 73.33Q557 56.33 537.50 48.33Q518 40.33 498 44.33Q478 48.33 462.50 63.83Q447 79.33 443 99.33Q439 119.33 447.50 137.83Q456 156.33 473.50 167.83Q491 179.33 512 179.33Z"/></svg>