<svg xmlns="http://www.w3.org/2000/svg" viewBox="-0.10227272727272751 -127.91860465116278 1068.285927512429 1023.9186046511628"><path d="M659-49.92L718 67.08Q734 98.08 761.50 118.08Q789 138.08 823 142.08L947 160.08Q1036 179.08 1061 257.58Q1086 336.08 1024 404.08L940 484.08Q914 509.08 903 542.58Q892 576.08 898 612.08L919 729.08Q929 819.08 864 867.58Q799 916.08 717 880.08L598 819.08Q567 803.08 533.50 803.08Q500 803.08 470 819.08L351 880.08Q268 917.08 203 868.08Q138 819.08 148 729.08L169 611.08Q175 575.08 164 541.58Q153 508.08 127 483.08L45 403.08Q-18 336.08 7 257.08Q32 178.08 121 159.08L245 142.08Q279 137.08 306.50 117.58Q334 98.08 351 67.08L409-49.92Q454-127.92 534-127.92Q614-127.92 659-49.92Z"/></svg>