<svg xmlns="http://www.w3.org/2000/svg" viewBox="0 -128 1024 1025"><path d="M416 298Q410 299 401 300L407 300Q413 300 416 298ZM416 298Q416 298 416.50 298Q417 298 416 298ZM559 338ZM501 404ZM495 176L491 176L486 174L484 172L480 172L480 174L478 174L474 172L471 172L469 174L467 172L454 172L454 174L452 174L450 176L448 176L446 178L444 178L444 182L442 184L442 189L444 191L446 195L448 195L448 197L446 193L450 195L448 199L450 202L452 206L452 210L457 212L457 214L459 214L457 219L459 221L459 223L461 225L463 240L465 244L465 253L467 259L465 263L465 270L463 272L463 276L465 274L463 278L463 280L465 280L465 283L467 283L467 287L465 289L465 291L467 291L463 295L463 300L461 300Q460 300 459 298L459 304L452 304L450 306L448 306L448 304Q444 303 444 306L439 306L420 310L416 310Q413 310 409 311L403 312Q390 316 378 317Q374 317 370 318Q366 319 363 319Q366 319 368 318Q370 317 373 317Q366 317 356 321L356 323L348 323L348 321Q346 324 343 323L346 321Q347 321 348.50 319Q350 317 352 317L350 317Q346 316 345 318Q344 320 343.50 319.50Q343 319 341 319L339 319L335 321L331 321Q328 322 328 319Q328 316 327 315L326 315Q324 317 324 323L326 330L326 321Q324 325 324 330L326 330Q326 335 328 338Q330 341 330.50 345Q331 349 333 351L335 355Q337 355 338 357.50Q339 360 339 362Q342 365 341 366Q342 369 343.50 370Q345 371 346 372L352 376Q353 374 354 374Q358 372 358 372L363 372Q365 372 365 368L367 368Q365 368 366 368.50Q367 369 369.50 367Q372 365 375 366Q379 363 380 366Q379 366 386.50 365Q394 364 401 364Q399 366 397 366Q393 367 393 368L405 368Q410 367 414 364L418 359Q419 358 418.50 357.50Q418 357 420 355Q424 356 425 353Q428 350 431 351L435 349L439 349L439 351L442 353L442 351L444 351L442 355L442 364L439 364L439 366L448 368L442 374L442 379L439 381L439 379L437 381L437 383L435 383L433 387L433 385L431 387L433 387L431 391L401 440L401 438L397 443L395 447L395 449L393 453L388 455L388 458L384 462L384 460L382 462L382 466L380 470L378 470L378 468L384 468L384 470L382 472L380 477L378 470L375 475L373 477L367 490L356 500L354 504L352 504L350 507L348 507L348 511L346 513L346 511L343 511L343 513L339 517L337 513L335 513L333 517L329 517L326 519L324 519L320 522L318 522L318 524L320 526L320 528L322 532L322 534L326 536L324 536L329 541L337 545L337 549L341 551L346 558L354 562L356 562L363 564L380 564L382 562L384 562L386 560L390 560L393 558L395 558L397 556L399 556L397 558L399 558L401 556L403 556L407 554L414 551L416 551L416 547L420 547L422 545L425 545L427 543L425 541L425 539L427 539L433 532L439 519L439 517L444 515L444 513L446 513L448 509L442 513L446 511L446 502L452 498L454 496L454 494L452 494L454 492L454 490L459 485L459 483L463 477L465 472L465 470L467 468L465 468L465 464L467 460L469 458L469 455L471 451L471 447L474 449L476 447L476 443L480 443L480 440L478 440L480 436L482 434L482 432L471 449L471 451L469 451L469 447L471 445L471 443L474 438L476 436L476 434L478 432L478 434L480 430L480 421L486 415L486 417L489 417L489 419L491 417L493 417L495 419L495 428L497 423L491 423L491 419L495 417L493 413L495 413L491 413L491 408L489 408L489 406L491 404L491 400L493 394L495 389L497 387L497 391L499 391L501 389L503 391L503 394L501 398L499 398L499 402L497 404L495 404L493 406L495 406L495 411L493 415L493 423L499 421L501 421L499 419L501 415L501 413L499 411L503 406L503 402L501 400L501 398L499 396L499 391L501 394L503 394L503 389L506 385L506 383L510 376L512 370L512 374L510 372L512 372L514 368L516 366L516 364L508 364L506 368L506 364L508 359L510 357L518 355L521 353L533 351Q534 349 535 348Q536 347 533 347Q536 346 534 345.50Q532 345 527 344L527 342Q532 343 538 340Q537 342 536.50 342.50Q536 343 535 344Q538 342 540 342Q537 343 538 340L540 340Q537 341 538 338Q543 338 543.50 337Q544 336 548 336L553 334L555 334Q555 335 557 334Q559 333 559 332L561 334L563 334L567 336Q569 336 570 334Q567 330 565 330L570 330Q568 330 569 331Q570 332 572 332L574 332L574 342L589 342Q594 339 599 338L599 334Q601 333 602 336L606 332Q607 334 608 334L612 334Q613 333 617 332Q618 335 619.50 335.50Q621 336 621 334L625 334Q622 333 625 332L629 332L631 330Q633 330 632 331L631 332Q633 331 634 334L636 334L636 332L638 334L642 336Q642 338 644 340L644 336Q645 334 646.50 335Q648 336 649 337.50Q650 339 650 339L651 338L651 342L653 342L653 338L654 340Q655 343 655 344L659 349Q661 348 661.50 344.50Q662 341 663 342L666 351L666 342Q666 343 667 341L668 338L661 342L661 344L663 342Q661 339 666 338L666 342Q668 342 672 339Q676 336 676 334L681 334L683 332Q685 332 690.50 321.50Q696 311 689 287Q690 285 689 284.50Q688 284 689 283L689 280L687 280Q685 280 685 278L687 276Q688 276 688 275L687 272L687 270L683 270L683 266Q683 264 680.50 262.50Q678 261 678.50 258.50Q679 256 676 257L674 257L676 259L674 259Q673 263 672 263L672 261Q671 259 668 259L666 259L668 257L668 255Q667 252 670 255Q669 250 672 251L672 255Q672 253 673 252.50Q674 252 675 251Q676 250 676 249.50Q676 249 676 251Q678 249 677 248.50Q676 248 675.50 246Q675 244 674 244L672 246L672 257Q673 255 673 254L672 253Q673 249 674 248Q672 247 671 247Q670 247 670 244L668 246L668 242L666 240L661 244Q660 246 658.50 245.50Q657 245 656 246Q655 247 654 248L653 251Q652 248 651 248L649 253Q647 256 646 257L644 257Q646 257 645 256L644 255L644 248L642 248L640 253L638 253Q636 253 636 255.50Q636 258 634 257L631 257Q629 255 629 253Q629 251 627 250L625 248Q624 250 623 249L623 248Q623 247 621 246L619 248Q616 249 617 246Q614 247 614 248L610 248L606 244Q602 241 602 244Q603 246 610 246L619 246Q619 249 617 248L617 246Q615 246 614.50 245.50Q614 245 612 246L612 244Q613 243 610.50 242.50Q608 242 607 244L606 246Q603 245 604 244L599 244Q597 245 597 246Q594 246 593 248Q592 249 592.50 249.50Q593 250 595 251L597 248L599 251Q596 252 595.50 253Q595 254 593 254L591 253L589 253Q588 252 585 255Q582 254 582 257L578 257L574 261L574 257Q574 258 573 259Q572 260 571.50 262Q571 264 570 263Q570 261 567 261L567 263L563 263Q562 264 561 268L559 268L561 272L565 272Q564 272 563.50 273Q563 274 561 274Q558 278 555 279Q552 280 549.50 279.50Q547 279 544 280Q545 283 542 283L540 283L540 285L535 285L532 288Q531 288 529 287L527 289L527 283L529 283L529 280Q530 281 531 278L529 278L527 276L531 270L529 268L531 266L533 261L531 259L531 255L533 253L533 248L535 244L533 244L533 234L531 229L529 229L531 227L529 223L529 221L527 219L527 216L525 214L523 214L533 212L529 204L527 204L525 199L523 197L521 199L518 195L514 191L518 193L512 191L512 184L508 182L506 180L503 180L497 174ZM378 372L382 370Q380 370 379.50 371Q379 372 378 372ZM480 436L480 432ZM676 547L678 545L681 545L681 541L683 541L683 539L685 539L685 534L689 534L691 530L695 530L695 528L698 526L698 524L700 522L700 515L704 502L704 498L700 464L700 460L691 451L691 449L689 449L687 445L687 449L685 447L685 445L676 445L674 443L674 440L672 440L670 438L668 438L668 436L666 434L663 434L661 432L661 430L659 430L661 432L657 432L657 430L653 430L653 428L651 428L651 426L649 426L649 423L646 423L646 421L636 421L636 419L634 419L631 417L627 417L627 419L625 419L614 408L610 408L604 402L602 402L599 400L597 400L597 398L593 398L593 400L591 400L587 398L585 398L585 396L582 394L580 394L578 391L576 391L572 389L572 391L570 391L570 389L572 389L570 387L567 387L565 389L565 387L563 387L561 385L559 385L559 387L561 387L561 389L563 389L563 391L561 391L563 394L563 396L561 396L561 398L559 398L559 402L555 402L555 400L553 400L555 400L553 400L550 398L550 400L553 402L546 402L544 400L544 398L542 398L542 402L538 402L535 404L531 404L531 402L529 402L529 400L527 400L523 398L514 398L514 400L516 400L516 402L518 404L523 404L533 413L533 415L535 417L538 417L544 423L542 423L542 426L540 426L540 423L533 423L538 428L538 430L540 430L550 440L553 440L555 443L555 447L557 449L559 449L559 451L555 451L557 453L559 453L561 458L565 462L567 466L574 472L576 472L580 477L580 479L582 483L585 483L585 481L587 483L589 483L589 470L625 500L625 502L629 502L629 504L631 504L636 509L636 511L638 511L651 524L653 524L655 526L655 528L661 528L661 532L663 532L666 534L666 536L668 536L661 534L666 534L668 536L672 536L672 541L674 545L676 547L676 554L676 547L674 551ZM393 302Q390 303 388 304L384 304Q390 301 393 302ZM322 534ZM540 272Q540 272 540.50 272Q541 272 540 272ZM228 22L499 22L378-99Q347-128 308.50-128Q270-128 241-99Q217-73 214-39.50Q211-6 228 22ZM655 739L512 564L369 737Q351 758 326 760.50Q301 763 279 746Q257 726 256 696L256 449L85 449L85 684Q88 774 148 834.50Q208 895 299 897L725 897Q816 895 876 834.50Q936 774 939 684L939 449L768 449L768 696Q767 724 749.50 742Q732 760 703.50 761.50Q675 763 655 739ZM768 108L896 108Q950 109 986.50 144Q1023 179 1024 234L1024 238Q1023 292 986.50 327Q950 362 896 364L768 364ZM128 108L256 108L256 364L128 364Q74 362 37.50 327Q1 292 0 238L0 236Q1 181 37.50 145Q74 109 128 108ZM783-99Q753-128 714-128Q675-128 646-99L523 22L794 22Q813-6 810-39.50Q807-73 783-99Z"/></svg>