<svg xmlns="http://www.w3.org/2000/svg" viewBox="125.97916666666666 -76 773.9280498281788 920"><path d="M889 618L833 510L833 328Q829 204 752.50 117.50Q676 31 558 12L558-31Q558-50 545-63Q532-76 512-76Q492-76 479-63Q466-50 466-31L466 12Q348 31 272 118Q196 205 193 328L193 510L137 618Q114 667 139 708.50Q164 750 218 753L420 753Q421 792 447 818Q473 844 512 844Q551 844 577 818Q603 792 604 753L807 753Q861 750 886.50 708.50Q912 667 889 618ZM234 650L283 558Q296 535 295 510L295 328Q298 236 359 174.50Q420 113 512 111Q604 113 665 174.50Q726 236 729 328L729 510Q728 535 741 558L790 650Z"/></svg>