<svg xmlns="http://www.w3.org/2000/svg" viewBox="43 -85 938 938"><path d="M299-85L725-85Q834-83 906.50-10.50Q979 62 981 171L981 597Q979 706 906.50 778.50Q834 851 725 853L299 853Q190 851 117.50 778.50Q45 706 43 597L43 171Q45 62 117.50-10.50Q190-83 299-85ZM427 171L427 299L299 299Q263 300 238.50 324Q214 348 214 384Q214 420 238.50 444Q263 468 299 469L427 469L427 597Q428 633 452 657.50Q476 682 512 682Q548 682 572 657.50Q596 633 597 597L597 469L725 469Q761 468 785.50 444Q810 420 810 384Q810 348 785.50 324Q761 300 725 299L597 299L597 171Q596 135 572 110.50Q548 86 512 86Q476 86 452 110.50Q428 135 427 171Z"/></svg>