<svg xmlns="http://www.w3.org/2000/svg" viewBox="21 -107 982 982"><path d="M879 102Q936 137 969 193.50Q1002 250 1003 320L1003 619Q1000 727 927.50 799.50Q855 872 747 875L448 875Q378 874 321.50 841Q265 808 230 751Q259 769 293 779Q327 789 363 789L661 789Q770 787 842.50 714.50Q915 642 917 533L917 235Q917 161 879 102ZM277-107L576-107Q684-104 756.50-31.50Q829 41 832 149L832 448Q829 556 756.50 628.50Q684 701 576 704L277 704Q169 701 96.50 628.50Q24 556 21 448L21 149Q24 41 96.50-31.50Q169-104 277-107ZM576 107L277 107Q250 107 232 125Q214 143 214 170.50Q214 198 232 216Q250 234 277 235L576 235Q604 234 621.50 216Q639 198 639 170.50Q639 143 621.50 125Q604 107 576 107ZM576 363L277 363Q250 363 232 381Q214 399 214 426.50Q214 454 232 472Q250 490 277 491L576 491Q604 490 621.50 472Q639 454 639 426.50Q639 399 621.50 381Q604 363 576 363Z"/></svg>