<svg xmlns="http://www.w3.org/2000/svg" viewBox="0 -128 1024 1024"><path d="M768 256Q750 256 738 243.50Q726 231 725 213L725 21Q725-6 707-24Q689-42 661-43L363-43Q335-42 317-24Q299-6 299 21L299 213Q298 231 286 243.50Q274 256 256 256Q238 256 226 243.50Q214 231 213 213L213 0Q215-54 251-90.50Q287-127 341-128L683-128Q737-127 773-90.50Q809-54 811 0L811 213Q810 231 798 243.50Q786 256 768 256ZM661 491L621 491L670 442Q684 427 684 408.50Q684 390 669.50 375.50Q655 361 637 361Q619 361 604 375L512 467L420 375Q405 361 387 361Q369 361 354.50 375.50Q340 390 340 408.50Q340 427 354 442L403 491L363 491Q345 491 332.50 503Q320 515 320 533Q320 551 332.50 563.50Q345 576 363 576L469 576L469 619L405 619Q387 619 375 631Q363 643 363 661Q363 679 375 691.50Q387 704 405 704L469 704L469 789Q470 807 482 819.50Q494 832 512 832Q530 832 542 819.50Q554 807 555 789L555 704L619 704Q637 704 649 691.50Q661 679 661 661Q661 643 649 631Q637 619 619 619L555 619L555 576L661 576Q679 576 691.50 563.50Q704 551 704 533Q704 515 691.50 503Q679 491 661 491ZM811 896L213 896Q123 894 62.50 833.50Q2 773 0 683L0 256Q1 178 48.50 120.50Q96 63 171 47L171 119Q151 137 139.50 161.50Q128 186 128 213Q129 268 165.50 304Q202 340 256 341Q310 340 346.50 304Q383 268 384 213Q384 184 372.50 160.50Q361 137 341 119L341 43L683 43L683 119Q663 137 651.50 161.50Q640 186 640 213Q641 268 677.50 304Q714 340 768 341Q822 340 858.50 304Q895 268 896 213Q896 184 884.50 160.50Q873 137 853 119L853 47Q928 63 975.50 120.50Q1023 178 1024 256L1024 683Q1022 773 961.50 833.50Q901 894 811 896Z"/></svg>