<svg xmlns="http://www.w3.org/2000/svg" viewBox="85 -43 854 854"><path d="M512-43Q331-38 210.50 82.50Q90 203 85 384Q90 565 210.50 685.50Q331 806 512 811Q693 806 813.50 685.50Q934 565 939 384Q934 203 813.50 82.50Q693-38 512-43ZM512 759Q352 756 246 650Q140 544 137 384Q140 224 246 118Q352 12 512 9Q672 12 778 118Q884 224 887 384Q884 544 778 650Q672 756 512 759ZM621 227L512 336L403 227Q392 217 379 217Q366 217 355.50 227.50Q345 238 345 251Q345 264 355 275L464 384L355 493Q345 504 345 517Q345 530 355.50 540.50Q366 551 379 551Q392 551 403 541L512 432L621 541Q632 551 645 551Q658 551 668.50 540.50Q679 530 679 517Q679 504 669 493L560 384L669 275Q679 264 679 251Q679 238 668.50 227.50Q658 217 644.50 217Q631 217 621 227Z"/></svg>