<svg xmlns="http://www.w3.org/2000/svg" viewBox="21 -106 982 980.0655737704916"><path d="M704 698.07L704 811.07Q703 838.07 685.50 856.07Q668 874.07 640 874.07Q612 874.07 594.50 856.07Q577 838.07 576 811.07L576 640.07Q577 612.07 594.50 594.57Q612 577.07 640 576.07Q740 574.07 806 507.57Q872 441.07 875 341.07Q875 314.07 893 296.07Q911 278.07 938.50 278.07Q966 278.07 984 296.07Q1002 314.07 1003 341.07Q1000 478.07 917.50 575.57Q835 673.07 704 698.07ZM320 811.07L320 698.07Q189 673.07 106.50 575.57Q24 478.07 21 341.07Q22 314.07 40 296.07Q58 278.07 85.50 278.07Q113 278.07 131 296.07Q149 314.07 149 341.07Q152 441.07 218 507.57Q284 574.07 384 576.07Q412 577.07 429.50 594.57Q447 612.07 448 640.07L448 811.07Q447 838.07 429.50 856.07Q412 874.07 384 874.07Q356 874.07 338.50 856.07Q321 838.07 320 811.07ZM841 254.07L683 416.07Q674 429.07 661 442.07L631 471.07Q580 519.07 514.50 519.57Q449 520.07 397 474.07L335 410.07Q331 406.07 331 403.07L183 252.07Q124 186.07 124 103.57Q124 21.07 183-44.93L186-46.93Q192-45.93 192-48.93Q256-106.93 336-105.43Q416-103.93 478-44.93L512-8.93L546-44.93Q608-103.93 689-105.93Q770-107.93 832-48.93L836-44.93L841-42.93Q900 23.07 900 106.07Q900 189.07 841 254.07Z"/></svg>