<svg xmlns="http://www.w3.org/2000/svg" viewBox="128 44 735 708"><path d="M666 752L195 752Q165 752 147 732.50Q129 713 128 683L128 402Q129 372 148 352.50Q167 333 195 333L666 333Q695 333 713.50 352.50Q732 372 732 402L732 686Q731 714 712 733Q693 752 666 752ZM689 182Q687 241 648.50 280Q610 319 553 320Q496 319 458.50 280Q421 241 420 182Q421 123 459.50 84Q498 45 556 44Q613 46 650 85.50Q687 125 689 182ZM384 233Q383 270 358.50 295.50Q334 321 297 321.50Q260 322 235.50 297Q211 272 211 233Q211 194 235.50 169Q260 144 297 144Q334 144 358.50 169.50Q383 195 384 233ZM415 458L530 527Q541 536 541 548Q541 560 530 568L415 637Q402 644 391 637.50Q380 631 379 617L379 479Q381 465 392 459Q403 453 415 458ZM791 412L622 511Q599 527 599 554Q599 581 622 596L791 696Q816 708 838.50 695Q861 682 863 652L863 455Q861 426 839 412.50Q817 399 791 412Z"/></svg>