<svg xmlns="http://www.w3.org/2000/svg" viewBox="56.4375 -68.4443359375 906.7910714285714 907.6729073660714"><path d="M914 158.78L847 158.78L847 739.78Q849 778.78 825 806.78Q801 834.78 762 838.78L274 838.78Q253 840.78 233.50 833.78Q214 826.78 199 812.28Q184 797.78 176.50 778.78Q169 759.78 171 738.78L171 158.78L108 158.78Q85 156.78 71 140.78Q57 124.78 57 102.78Q54 81.78 67 65.28Q80 48.78 101 45.78L341 45.78L341-16.22Q338-38.22 354-54.22Q370-70.22 392-68.22L626-68.22Q648-70.22 663.50-54.72Q679-39.22 676-17.22L676 45.78L910 45.78Q934 44.78 949.50 61.78Q965 78.78 963 102.78Q962 123.78 948.50 139.78Q935 155.78 914 158.78ZM569 285.78L569 622.78Q569 646.78 585.50 662.78Q602 678.78 626 679.78Q650 680.78 667 663.78Q684 646.78 683 622.78L683 285.78Q683 259.78 667 241.78Q651 223.78 626 220.78Q601 224.78 585.50 242.78Q570 260.78 569 285.78ZM341 285.78L341 622.78Q342 646.78 358 662.78Q374 678.78 398 678.78Q422 678.78 438.50 662.78Q455 646.78 455 622.78L455 285.78Q455 260.78 439 242.78Q423 224.78 398 220.78Q374 225.78 358.50 243.28Q343 260.78 341 285.78Z"/></svg>