<svg xmlns="http://www.w3.org/2000/svg" viewBox="128.08955223880596 26 767.8208955223881 691"><path d="M545 584L545 652L653 652Q663 652 670 659Q677 666 677 676L677 693Q677 703 670 710Q663 717 653 717L371 717Q361 717 354 710Q347 703 347 693L347 676Q347 666 354 659Q361 652 371 652L479 652L479 584Q436 578 398.50 558.50Q361 539 333 509Q177 461 130 230Q122 182 147.50 143.50Q173 105 221 94Q232 92 244 92L264 92L264 74Q265 54 278.50 40.50Q292 27 312 26L712 26Q732 27 745.50 40.50Q759 54 760 74L760 92L780 92Q792 92 803 94Q851 105 876.50 143.50Q902 182 894 230Q847 461 691 509Q663 539 625.50 558.50Q588 578 545 584ZM270 393Q264 366 264 338L264 158L244 158Q239 158 234 159Q213 163 202 179.50Q191 196 195 217Q219 334 270 393ZM780 158L760 158L760 338Q760 366 754 393Q805 334 829 217Q833 196 822 179.50Q811 163 790 159Q785 158 780 158ZM572 366L512 335L452 366Q445 369 439 364.50Q433 360 434 352L445 286L397 240Q391 234 393.50 226.50Q396 219 404 218L471 208L501 148Q504 141 512 141Q520 141 523 148L553 208L620 218Q628 219 630.50 226.50Q633 234 627 240L579 286L590 352Q591 360 585 364.50Q579 369 572 366Z"/></svg>