<svg xmlns="http://www.w3.org/2000/svg" viewBox="0 -128 1024 1024"><path d="M512-128Q293-123 149 21Q5 165 0 384Q5 603 149 747Q293 891 512 896Q731 891 875 747Q1019 603 1024 384Q1019 165 875 21Q731-123 512-128ZM512 782Q342 778 230 666Q118 554 114 384Q118 214 230 102Q342-10 512-14Q682-10 794 102Q906 214 910 384Q906 554 794 666Q682 778 512 782ZM506 94Q608 94 657 138.50Q706 183 705 265Q705 306 686.50 335.50Q668 365 637 390L590 431Q570 448 569 481L569 509L444 509L444 481Q445 431 465 403.50Q485 376 512 356Q542 332 561 314.50Q580 297 580 265Q579 235 558 221Q537 207 506.50 207Q476 207 453 223.50Q430 240 421 282L307 265Q325 175 377 134Q429 93 506 94ZM569 560L569 674L444 674L444 560Z"/></svg>