<svg xmlns="http://www.w3.org/2000/svg" viewBox="-0.4074074074074071 0 1024.2255892255891 768"><path d="M1008 362L880 490Q860 510 832.50 511Q805 512 787 492L659 364Q644 350 640.50 331Q637 312 645.50 293.50Q654 275 669.50 265Q685 255 704 254L768 254L768 190Q769 163 750 144Q731 125 704 126L320 126Q295 130 275 145Q235 130 192 123Q162 125 135 136Q155 74 205 37Q255 0 320 0L704 0Q786 2 840 56Q894 110 896 192L896 256L960 256Q980 255 995.50 265.50Q1011 276 1018 295Q1026 312 1023 330Q1020 348 1008 362ZM704 768L320 768Q239 766 184.50 712Q130 658 128 576L128 512L64 512Q44 513 28.50 501.50Q13 490 7 471Q-3 453 0.50 433.50Q4 414 19 400L147 272Q165 251 192 251Q219 251 237 271L365 399Q380 413 383.50 432.50Q387 452 378 470Q372 490 356.50 501.50Q341 513 320 512L256 512L256 576Q257 603 275 621Q293 639 320 640L704 640Q731 640 749 621Q788 641 832 640Q847 640 861.50 637Q876 634 890 634Q868 694 818 730Q768 766 704 768Z"/></svg>