<svg xmlns="http://www.w3.org/2000/svg" viewBox="0 -64 1025.0625 897.060546875"><path d="M960 199.06L64 199.06Q35 199.06 17.50 182.06Q0 165.06 0 135.56Q0 106.06 17.50 89.06Q35 72.06 64 71.06L960 71.06Q989 72.06 1006.50 89.06Q1024 106.06 1024 135.56Q1024 165.06 1006.50 182.06Q989 199.06 960 199.06ZM915 174.06L806 39.06Q792 19.06 793-7.44Q794-33.94 813.50-49.44Q833-64.94 860-63.94Q887-62.94 902-43.94L1011 91.06Q1026 111.06 1025 137.56Q1024 164.06 1005 180.06Q985 199.06 960 196.06Q935 193.06 915 174.06ZM960 513.06L64 513.06Q35 513.06 17.50 495.56Q0 478.06 0 449.06Q0 420.06 17.50 402.56Q35 385.06 64 385.06L960 385.06Q989 385.06 1006.50 402.56Q1024 420.06 1024 449.06Q1024 478.06 1006.50 495.56Q989 513.06 960 513.06ZM915 494.06L806 359.06Q792 339.06 793 312.56Q794 286.06 813.50 270.56Q833 255.06 860 256.06Q887 257.06 902 276.06L1011 411.06Q1026 431.06 1025 457.56Q1024 484.06 1005 500.06Q985 519.06 960 516.06Q935 513.06 915 494.06ZM960 833.06L64 833.06Q35 833.06 17.50 815.56Q0 798.06 0 769.06Q0 740.06 17.50 722.56Q35 705.06 64 705.06L960 705.06Q989 705.06 1006.50 722.56Q1024 740.06 1024 769.06Q1024 798.06 1006.50 815.56Q989 833.06 960 833.06ZM915 807.06L806 673.06Q792 652.06 793 625.56Q794 599.06 813.50 584.06Q833 569.06 860 570.06Q887 571.06 902 590.06L1011 724.06Q1026 745.06 1025 771.56Q1024 798.06 1005 814.06Q985 833.06 960 830.06Q935 827.06 915 807.06Z"/></svg>