<svg xmlns="http://www.w3.org/2000/svg" viewBox="0 -37.92 1024 844.8399999999999"><path d="M51 191L223 191Q230 191 244 196.50Q258 202 266 210L326 276Q339 297 360.50 297Q382 297 402 276Q422 261 422 237Q422 213 402 191L343 125Q322 103 289 86.50Q256 70 223 69L51 69Q25 70 12.50 86.50Q0 103 0 125Q1 154 16 172Q31 190 51 191ZM694 191L788 191L788 266Q788 281 794.50 286.50Q801 292 814 285L1011 144Q1024 137 1024 126Q1024 115 1011 107L814-34Q801-41 794.50-35.50Q788-30 788-15L788 88L694 88Q633 89 602.50 120Q572 151 531 201L334 511Q304 541 246 563.50Q188 586 145 587L52 587Q26 588 13 604.50Q0 621 1 643Q1 671 16.50 685Q32 699 52 699L146 699Q213 698 288 667.50Q363 637 411 586L608 275Q637 240 647.50 216Q658 192 694 191ZM1011 625L814 474Q801 467 794.50 473Q788 479 788 493L788 587L694 587Q686 587 672 581.50Q658 576 651 568L591 502Q577 481 555.50 481Q534 481 514 502Q495 517 495 541Q495 565 514 587L574 653Q594 675 627 691.50Q660 708 694 709L788 709L788 784Q788 799 794.50 804.50Q801 810 814 803L1011 662Q1023 654 1023 643Q1023 632 1011 625Z"/></svg>