<svg xmlns="http://www.w3.org/2000/svg" viewBox="126 3 768 796.25"><path d="M510 589.25L396 589.25L345 799.25L675 799.25L624 589.25ZM536 57.25L536 28.25Q535 14.25 522.50 6.75Q510-0.75 497.50 6.75Q485 14.25 484 28.25L484 57.25Q378 69.25 310 144.25Q242 219.25 239 326.25L239 423.25Q239 435.25 247 443.25Q255 451.25 266 450.25L754 450.25Q765 450.25 772.50 442.25Q780 434.25 780 423.25L780 326.25Q777 219.25 709.50 144.75Q642 70.25 536 57.25ZM126 371.25ZM229 371.25L791 371.25Q894 371.25 894 474.25L894 489.25Q894 592.25 791 592.25L229 592.25Q126 592.25 126 489.25L126 474.25Q126 371.25 229 371.25ZM742 444.25Q731 444.25 721.50 450.25Q712 456.25 707.50 467.25Q703 478.25 705.50 489.25Q708 500.25 716 508.25Q724 516.25 735 518.25Q746 520.25 756.50 515.75Q767 511.25 773.50 502.25Q780 493.25 780 481.25Q780 466.25 769 455.25Q758 444.25 742 444.25ZM277 444.25Q261 444.25 250.50 454.75Q240 465.25 240 481.25Q240 497.25 250.50 507.75Q261 518.25 277 518.25Q293 518.25 303.50 507.75Q314 497.25 314 481.75Q314 466.25 303 455.25Q292 444.25 277 444.25Z"/></svg>