<svg xmlns="http://www.w3.org/2000/svg" viewBox="0 -128 1024 931"><path d="M884 803Q827 801 786.50 761Q746 721 745 663L745 12Q746-46 786.50-86Q827-126 884-128Q942-126 982-86Q1022-46 1024 12L1024 663Q1022 721 982 761Q942 801 884 803ZM512 803Q454 801 414 761Q374 721 372 663L372 291Q374 233 414 193Q454 153 512 151Q570 153 610 193Q650 233 652 291L652 663Q650 721 610 761Q570 801 512 803ZM140 803Q82 801 42 761Q2 721 0 663L0 477Q2 420 42 379.50Q82 339 140 338Q197 339 237.50 379.50Q278 420 279 477L279 663Q278 721 237.50 761Q197 801 140 803Z"/></svg>