<svg xmlns="http://www.w3.org/2000/svg" viewBox="107 18 814 669"><path d="M881 292L881 329Q878 423 807 486Q736 549 628 551L410 551L244 626L151 367Q147 349 148 329L148 292Q151 197 221 132.50Q291 68 398 65L631 65Q736 68 807 132.50Q878 197 881 292ZM642 18L386 18Q270 22 191.50 98.50Q113 175 107 292L107 335Q107 359 110 382L215 687L398 597L642 597Q761 594 839.50 520.50Q918 447 921 335L921 292Q916 175 837.50 98.50Q759 22 642 18ZM700 371L700 370Q679 370 664.50 355Q650 340 649 319Q651 296 667.50 281Q684 266 707 267Q730 268 744 283.50Q758 299 759 322Q755 344 739 357.50Q723 371 700 371ZM521 372L521 371Q499 371 485 356.50Q471 342 470 320Q472 297 488.50 282Q505 267 527.50 268Q550 269 564.50 284.50Q579 300 579 323Q575 344 559 358Q543 372 521 372ZM342 373L342 372Q320 372 305.50 357.50Q291 343 291 321Q293 298 309 283Q325 268 348 269Q371 270 385.50 285.50Q400 301 400 324Q396 345 380 359Q364 373 342 373ZM619 100L621 103L413 103Q319 105 255 159Q191 213 189 292L189 321Q188 337 192 353L267 577L378 519L645 519Q685 519 721.50 504.50Q758 490 786 462Q814 434 828.50 397.50Q843 361 843 321L843 292Q838 211 775 156.50Q712 102 619 100Z"/></svg>