<svg xmlns="http://www.w3.org/2000/svg" viewBox="41.67567567567568 -126 939.8378378378379 1002.9411764705881"><path d="M471 876.94L432 876.94Q355 876.94 284.50 848.44Q214 819.94 158 763.94Q96 701.94 66 621.44Q36 540.94 43 452.94Q58 314.94 150.50 218.44Q243 121.94 381 100.94Q432 94.94 481.50 100.94Q531 106.94 578 126.94Q565 76.94 578 26.94Q594-34.06 641-75.06Q688-116.06 752-125.06Q796-129.06 837.50-116.06Q879-103.06 912.50-73.56Q946-44.06 964-4.56Q982 34.94 981.50 79.44Q981 123.94 960.50 164.44Q940 204.94 901 235.94Q867 262.94 833 274.94Q799 286.94 762 284.94Q796 338.94 810 399.44Q824 459.94 819 524.94Q804 666.94 709 763.44Q614 859.94 471 876.94ZM432 118.94Q408 119.94 383 122.94Q253 141.94 165 233.44Q77 324.94 63 454.94Q58 538.94 85.50 615.44Q113 691.94 172 750.44Q231 808.94 308 835.44Q385 861.94 469 853.94Q601 838.94 692 746.44Q783 653.94 799 520.94Q805 456.94 790 397.44Q775 337.94 739 284.94Q733 277.94 739 268.94Q741 264.94 745 262.94Q749 260.94 754 262.94Q790 266.94 823.50 256.94Q857 246.94 891 218.94Q925 190.94 943.50 154.94Q962 118.94 963 79.94Q962 39.94 946 4.44Q930-31.06 900-58.06Q870-85.06 832-97.06Q794-109.06 754-104.06Q697-97.06 655-60.56Q613-24.06 598 30.94Q585 80.94 600 130.94Q603 140.94 596 146.94Q589 152.94 580 149.94Q509 118.94 432 118.94ZM750 282.94Z"/></svg>