<svg xmlns="http://www.w3.org/2000/svg" viewBox="0 -128 1025 1024"><path d="M186-35L838-35Q877-34 903.50-7.50Q930 19 931 58L931 710Q930 750 903.50 776Q877 802 838 803L186 803Q147 802 120.50 776Q94 750 93 710L93 58Q94 19 120.50-7.50Q147-34 186-35ZM838-128L186-128Q107-126 54.50-73.50Q2-21 0 58L0 710Q2 789 54.50 841.50Q107 894 186 896L838 896Q917 894 970 841.50Q1023 789 1025 710L1025 58Q1022-21 969.50-73.50Q917-126 838-128ZM698 617Q685 617 673 609L430 449Q409 435 409 410L409 131Q409 111 422 97.50Q435 84 455 84Q475 84 488 97.50Q501 111 502 131L502 384L724 528Q742 536 749 553Q756 570 749 589Q742 604 728 611.50Q714 619 698 617Z"/></svg>