<svg xmlns="http://www.w3.org/2000/svg" viewBox="152.666748046875 -1.4937759336099585 718.333251953125 769.49377593361"><path d="M870 307.51Q867 341.51 852 371.01Q837 400.51 811 422.51Q785 444.51 753 454.51Q721 464.51 687 461.51Q615 450.51 573 397.51Q531 344.51 538 272.51Q541 238.51 556 209.01Q571 179.51 597 157.51Q623 135.51 655 125.51Q687 115.51 721 118.51Q793 129.51 835 182.51Q877 235.51 870 307.51ZM739 676.51Q851 573.51 865 426.51Q879 279.51 792 147.51Q779 138.51 725 132.01Q671 125.51 664 125.51L194 536.51Q176 553.51 175 577.01Q174 600.51 190 619.51L190 621.51Q304 750.51 459 766.01Q614 781.51 739 676.51ZM371 515.51Q448 504.51 498.50 451.01Q549 397.51 554 320.51Q555 306.51 544.50 297.01Q534 287.51 521 288.51L179 325.51Q166 327.51 158 339.01Q150 350.51 154 364.51Q175 438.51 234.50 480.01Q294 521.51 371 515.51ZM723 208.51Q712 207.51 703 212.51Q694 217.51 688.50 227.01Q683 236.51 684 247.01Q685 257.51 691.50 265.51Q698 273.51 708 277.01Q718 280.51 728.50 277.51Q739 274.51 746 266.51Q753 258.51 754 247.51Q755 233.51 746 222.01Q737 210.51 723 208.51ZM539 150.51L540 152.51L594 175.51Q613 185.51 620.50 204.01Q628 222.51 620 242.51L614 256.51Q606 275.51 587 283.01Q568 290.51 549 282.51L495 258.51Q491 256.51 491 252.51Q491 248.51 495 246.51L548 223.51Q554 220.51 552 214.51L530 159.51Q529 155.51 532 152.51Q535 149.51 539 150.51ZM442 12.51Q439-0.49 425-1.49L421-1.49Q414-1.49 409 3.51Q404 8.51 404 16.51L404 129.51Q389 126.51 375 129.51Q348 134.51 329.50 154.01Q311 173.51 307 200.51Q308 224.51 327 236.01Q346 247.51 374 241.51Q402 235.51 420.50 216.51Q439 197.51 443 170.51L443 12.51Z"/></svg>